<?xml version="1.0" encoding="UTF-8" standalone="no"?>
<!-- Created with Inkscape (http://www.inkscape.org/) -->

<svg
   width="22.902836mm"
   height="46.932056mm"
   viewBox="0 0 22.902837 46.932057"
   version="1.1"
   id="svg1"
   xml:space="preserve"
   xmlns="http://www.w3.org/2000/svg"
   xmlns:svg="http://www.w3.org/2000/svg"><defs
     id="defs1" /><g
     id="layer7"
     transform="matrix(0.26458333,0,0,0.26458333,1299.9357,-422.61038)"><path
       style="font-size:236.508px;font-family:Zero;-inkscape-font-specification:Zero;fill:#ffffff;stroke:#000000;stroke-width:0;stroke-miterlimit:10"
       d="m -4826.5809,1731.3676 q 0,4.0207 -0.946,8.0413 -0.7096,4.0206 -2.1286,8.0413 -4.9667,11.8254 -15.6095,19.6301 -11.1159,7.5683 -24.5969,7.5683 -8.9873,0 -17.0285,-3.3111 -7.8048,-3.5476 -13.7175,-9.2238 -5.6762,-5.9127 -9.2238,-13.7175 -3.3111,-8.0413 -3.3111,-17.0286 v -90.819 q 0,-8.9873 3.3111,-16.7921 3.5476,-8.0413 9.2238,-13.7175 5.9127,-5.9127 13.7175,-9.2238 8.0412,-3.5476 17.0285,-3.5476 13.481,0 24.5969,7.5683 10.6428,7.8047 15.6095,19.6301 1.419,4.0207 2.1286,8.0413 0.946,3.7841 0.946,8.0413 z m -26.7254,-33.8206 q 6.8587,-4.2572 10.6428,-10.8794 4.0207,-6.6222 4.2572,-14.6635 -2.1286,2.6016 -4.9667,4.7302 -2.6016,1.892 -5.6762,3.7841 l -37.6047,21.9953 q -6.3858,4.0206 -10.4064,10.4063 -3.7841,6.3857 -4.2571,13.954 1.419,-1.4191 2.8381,-2.3651 1.6555,-1.1825 3.5476,-2.3651 l 0.2365,-0.2365 z m -48.2476,2.3651 q 3.5476,-3.7842 8.9873,-7.3318 l 38.3143,-22.7048 q 7.5682,-4.0206 11.8254,-11.3523 4.2571,-7.5683 4.2571,-16.0826 v -1.892 q 0,-3.0746 -0.7095,-5.9127 -0.473,-3.0746 -1.6556,-5.9127 -3.5476,-8.9873 -11.5889,-14.427 -7.8047,-5.4397 -17.7381,-5.4397 -6.6222,0 -12.5349,2.6016 -5.6762,2.3651 -9.9333,6.6222 -4.2572,4.2571 -6.8588,10.1698 -2.365,5.6762 -2.365,12.2985 z m 61.019,43.2809 q 1.1826,-2.8381 1.6556,-5.6762 0.7095,-3.0746 0.7095,-6.1492 v -31.219 q -2.1286,2.1285 -4.4937,4.0206 -2.1285,1.6556 -4.7301,3.3111 l -41.6254,24.5969 q -6.3857,4.0206 -10.4064,10.4063 3.3111,8.9873 11.3524,14.6635 8.0413,5.6762 18.2111,5.6762 9.9334,0 17.7381,-5.2032 8.0413,-5.4397 11.5889,-14.427 z"
       id="text26-5"
       aria-label="0" /></g></svg>
