<?xml version="1.0" encoding="UTF-8" standalone="no"?>
<!-- Created with Inkscape (http://www.inkscape.org/) -->

<svg
   width="22.902836mm"
   height="46.368862mm"
   viewBox="0 0 22.902837 46.368862"
   version="1.1"
   id="svg1"
   xml:space="preserve"
   xmlns="http://www.w3.org/2000/svg"
   xmlns:svg="http://www.w3.org/2000/svg"><defs
     id="defs1" /><g
     id="layer7"
     transform="matrix(0.26458333,0,0,0.26458333,1196.752,-415.40152)"><path
       style="font-size:236.508px;font-family:Zero;-inkscape-font-specification:Zero;fill:#ffffff;stroke:#000000;stroke-width:0;stroke-miterlimit:10"
       d="m -4442.508,1664.8612 q -5.4397,9.4603 -14.6635,15.373 l -41.8619,24.3604 q -4.0206,2.6015 -7.3318,6.3857 -3.3111,3.5476 -5.2031,8.0412 v 14.6635 h 74.973 v 11.5889 h -86.5619 v -43.2809 q 0,-11.3524 5.4397,-21.0492 5.4396,-9.6969 15.1365,-15.6096 l 37.8412,-22.4682 q 7.5683,-4.2572 12.062,-11.5889 4.4936,-7.3318 4.4936,-16.0826 v -1.892 q 0,-6.6223 -2.6016,-12.2985 -2.3651,-5.9127 -6.6222,-10.1698 -4.2571,-4.2571 -10.1698,-6.6222 -5.6762,-2.6016 -12.2985,-2.6016 -6.6222,0 -12.5349,2.6016 -5.6762,2.3651 -9.9333,6.6222 -4.2572,4.2571 -6.8588,10.1698 -2.365,5.6762 -2.365,12.2985 v 5.6762 h -11.5889 v -5.6762 q 0,-8.9873 3.3111,-16.7921 3.5476,-8.0413 9.2238,-13.7175 5.9127,-5.9127 13.7175,-9.2238 8.0412,-3.5476 17.0285,-3.5476 8.9873,0 16.7921,3.5476 8.0413,3.3111 13.7175,9.2238 5.9127,5.6762 9.2238,13.7175 3.5476,7.8048 3.5476,16.7921 v 30.0365 q 0,11.1159 -5.9127,21.5222 z m -21.0492,5.4397 q 6.8587,-4.0206 10.6428,-10.6429 4.0207,-6.8587 4.4937,-14.9 -4.2571,4.7302 -10.6429,8.2778 l -37.3682,21.9953 q -6.6222,4.0206 -10.6429,10.4063 -3.7841,6.3857 -4.2571,13.954 3.3111,-2.8381 6.3857,-4.7302 z"
       id="text26-0-2-5"
       aria-label="2" /></g></svg>
