<?xml version="1.0" encoding="UTF-8" standalone="no"?>
<!-- Created with Inkscape (http://www.inkscape.org/) -->

<svg
   width="22.902863mm"
   height="46.932056mm"
   viewBox="0 0 22.902864 46.932057"
   version="1.1"
   id="svg1"
   xml:space="preserve"
   xmlns="http://www.w3.org/2000/svg"
   xmlns:svg="http://www.w3.org/2000/svg"><defs
     id="defs1" /><g
     id="layer7"
     transform="matrix(0.26458333,0,0,0.26458333,1167.6604,-419.36304)"><path
       style="font-size:236.508px;font-family:Zero;-inkscape-font-specification:Zero;fill:#ffffff;stroke:#000000;stroke-width:0;stroke-miterlimit:10"
       d="m -4326.6427,1630.1672 q 0,14.1905 -7.3318,25.7794 -7.0952,11.5888 -18.6841,17.7381 11.5889,6.1492 18.6841,17.7381 7.3318,11.5888 7.3318,25.7793 v 1.8921 q 0,4.2571 -0.9461,8.2778 -0.7095,3.7841 -2.1285,7.8047 -4.9667,11.8254 -15.6096,19.6302 -11.1158,7.5683 -24.5968,7.5683 -8.9873,0 -17.0286,-3.3112 -7.8047,-3.5476 -13.7174,-9.2238 -5.6762,-5.9127 -9.2239,-13.7174 -3.3111,-8.0413 -3.3111,-17.0286 v -17.5016 h 11.5889 v 17.5016 q 0,3.7841 1.1826,8.0413 h 30.5095 q 9.9333,0 17.7381,-5.2032 8.0413,-5.4397 11.5889,-14.427 0.473,-1.419 0.473,-1.6556 -1.8921,-5.6761 -5.4397,-10.4063 -3.3111,-4.9667 -8.0413,-8.2778 -4.4936,-3.5476 -10.1698,-5.4397 -5.6762,-2.1285 -12.0619,-2.1285 h -10.1698 v -11.8254 h 10.1698 q 7.8048,0 14.427,-2.8381 6.8587,-3.0746 12.0619,-8.0413 5.2032,-5.2032 8.0413,-12.0619 3.0746,-6.8588 3.0746,-14.6635 v -1.8921 q 0,-3.0746 -0.7096,-5.9127 -0.473,-3.0746 -1.6555,-5.9127 -3.5476,-8.9873 -11.5889,-14.427 -7.8048,-5.4397 -17.7381,-5.4397 -6.6222,0 -12.5349,2.6016 -5.6762,2.3651 -9.9334,6.6223 -4.2571,4.2571 -6.8587,10.1698 -2.3651,5.6762 -2.3651,12.2984 v 17.2651 h -11.5889 v -17.2651 q 0,-8.9873 3.3111,-16.792 3.5477,-8.0413 9.2239,-13.7175 5.9127,-5.9127 13.7174,-9.2238 8.0413,-3.5476 17.0286,-3.5476 13.481,0 24.5968,7.5682 10.6429,7.8048 15.6096,19.6302 1.419,4.0206 2.1285,8.0412 0.9461,3.7842 0.9461,8.0413 z m -13.954,100.7524 q 0.946,-2.3651 1.419,-4.9667 -1.419,1.4191 -3.0746,2.8381 -1.419,1.1826 -3.0746,2.3651 -11.1158,7.5683 -24.5968,7.5683 h -24.5968 q 4.2571,5.4396 10.6428,8.7508 6.3857,3.0746 13.954,3.0746 9.9333,0 17.7381,-5.2032 8.0413,-5.4397 11.5889,-14.427 z"
       id="text26-0-2-5-1"
       aria-label="3" /></g></svg>
