<?xml version="1.0" encoding="UTF-8" standalone="no"?>
<!-- Created with Inkscape (http://www.inkscape.org/) -->

<svg
   width="22.902863mm"
   height="45.868244mm"
   viewBox="0 0 22.902864 45.868244"
   version="1.1"
   id="svg1"
   xml:space="preserve"
   xmlns="http://www.w3.org/2000/svg"
   xmlns:svg="http://www.w3.org/2000/svg"><defs
     id="defs1" /><g
     id="layer7"
     transform="matrix(0.26458333,0,0,0.26458333,1139.6326,-421.80372)"><path
       style="font-size:236.508px;font-family:Zero;-inkscape-font-specification:Zero;fill:#ffffff;stroke:#000000;stroke-width:0;stroke-miterlimit:10"
       d="m -4440.6159,1571.9136 v 173.3603 h -11.5889 v -63.3841 h -31.6921 q -13.481,0 -24.5968,-7.5683 -10.6429,-7.8047 -15.6096,-19.6301 -3.0746,-8.0413 -3.0746,-16.0826 v -66.6952 h 11.5889 v 43.2809 q 0,3.0746 0.473,6.1492 0.7096,2.8381 1.8921,5.6762 3.5476,8.9873 11.3524,14.427 8.0413,5.2032 17.9746,5.2032 h 31.6921 v -74.7365 z m -11.5889,98.3873 v -11.8254 h -31.6921 q -13.481,0 -24.5968,-7.5683 -1.6556,-1.1825 -3.3111,-2.6016 -1.4191,-1.419 -3.0746,-2.838 0.473,1.1825 0.7095,2.6015 0.473,1.1826 0.946,2.3651 3.5476,8.9873 11.3524,14.427 8.0413,5.4397 17.9746,5.4397 z"
       id="text26-0-2-5-9"
       transform="translate(219.90509,22.305215)"
       aria-label="4" /></g></svg>
