<?xml version="1.0" encoding="UTF-8" standalone="no"?>
<!-- Created with Inkscape (http://www.inkscape.org/) -->

<svg
   width="22.902863mm"
   height="46.368862mm"
   viewBox="0 0 22.902864 46.368862"
   version="1.1"
   id="svg1"
   xml:space="preserve"
   xmlns="http://www.w3.org/2000/svg"
   xmlns:svg="http://www.w3.org/2000/svg"><defs
     id="defs1" /><g
     id="layer7"
     transform="matrix(0.26458333,0,0,0.26458333,1240.1354,-413.54374)"><path
       style="font-size:236.508px;font-family:Zero;-inkscape-font-specification:Zero;fill:#ffffff;stroke:#000000;stroke-width:0;stroke-miterlimit:10"
       d="m -4675.5371,1574.5889 v 51.7952 h 31.9286 q 13.2445,0 24.3603,7.5683 10.4064,7.0952 15.6096,19.3936 1.419,4.0207 2.1285,8.0413 0.9461,4.0207 0.9461,8.2778 v 23.4143 1.8921 q 0,8.9873 -3.5476,17.0285 -3.3112,7.8048 -9.2239,13.7175 -5.6761,5.6762 -13.7174,9.2238 -7.8048,3.3111 -16.7921,3.3111 -8.9873,0 -17.0286,-3.3111 -7.8047,-3.5476 -13.7174,-9.2238 -5.6762,-5.9127 -9.2238,-13.7175 -3.3112,-8.0412 -3.3112,-17.0285 h 11.5889 q 0,6.6222 2.3651,12.5349 2.6016,5.6762 6.8588,9.9333 4.2571,4.2572 9.9333,6.8587 5.9127,2.3651 12.5349,2.3651 6.6222,0 12.2984,-2.3651 5.9127,-2.6015 10.1699,-6.8587 4.2571,-4.2571 6.6222,-9.9333 2.6016,-5.9127 2.6016,-12.5349 v -1.8921 q 0,-6.6222 -2.6016,-12.2984 -2.3651,-5.9127 -6.6222,-10.1699 -4.2572,-4.2571 -10.1699,-6.6222 -5.6762,-2.6016 -12.2984,-2.6016 h -43.281 V 1563 h 86.562 v 11.5889 z m 0,63.3841 v 11.8254 h 31.6921 q 8.9873,0 16.7921,3.5476 8.0413,3.3112 14.1905,9.4604 -0.4731,-1.1826 -0.9461,-2.3651 -0.2365,-1.4191 -0.7095,-2.6016 -3.5476,-8.9873 -11.5889,-14.427 -7.8048,-5.4397 -17.7381,-5.4397 z"
       id="text26-0"
       aria-label="5" /></g></svg>
