<?xml version="1.0" encoding="UTF-8" standalone="no"?>
<!-- Created with Inkscape (http://www.inkscape.org/) -->

<svg
   width="22.902836mm"
   height="46.932056mm"
   viewBox="0 0 22.902837 46.932057"
   version="1.1"
   id="svg1"
   xml:space="preserve"
   xmlns="http://www.w3.org/2000/svg"
   xmlns:svg="http://www.w3.org/2000/svg"><defs
     id="defs1" /><g
     id="layer7"
     transform="matrix(0.26458333,0,0,0.26458333,1105.9533,-421.3031)"><path
       style="font-size:236.508px;font-family:Zero;-inkscape-font-specification:Zero;fill:#ffffff;stroke:#000000;stroke-width:0;stroke-miterlimit:10"
       d="m -4356.605,1660.8406 q 8.9873,0 16.792,3.5476 8.0413,3.3111 13.7175,9.2238 5.9127,5.6762 9.2238,13.7175 3.5476,7.8047 3.5476,16.792 0,8.9873 -3.5476,17.0286 -3.3111,7.8048 -9.2238,13.7175 -5.6762,5.6762 -13.7175,9.2238 -7.8047,3.3111 -16.792,3.3111 -8.9873,0 -17.0286,-3.3111 -7.8048,-3.5476 -13.7175,-9.2238 -5.6762,-5.9127 -9.2238,-13.7175 -3.3111,-8.0413 -3.3111,-17.0286 v -90.819 q 0,-8.9873 3.3111,-16.7921 3.5476,-8.0413 9.2238,-13.7175 5.9127,-5.9127 13.7175,-9.2238 8.0413,-3.5476 17.0286,-3.5476 8.9873,0 16.792,3.5476 8.0413,3.3111 13.7175,9.2238 5.9127,5.6762 9.2238,13.7175 3.5476,7.8048 3.5476,16.7921 h -11.5889 q 0,-6.6223 -2.6016,-12.2985 -2.365,-5.9127 -6.6222,-10.1698 -4.2571,-4.2571 -10.1698,-6.6222 -5.6762,-2.6016 -12.2984,-2.6016 -6.6223,0 -12.535,2.6016 -5.6762,2.3651 -9.9333,6.6222 -4.2571,4.2571 -6.8587,10.1698 -2.3651,5.6762 -2.3651,12.2985 v 61.492 q 6.1492,-6.3857 14.1905,-10.1698 8.0412,-3.7841 17.5016,-3.7841 z m 0,11.8254 q -6.6223,0 -12.2985,2.6016 -5.6761,2.365 -9.9333,6.6222 -4.2571,4.2571 -6.8587,9.9333 -2.3651,5.6762 -2.3651,12.2984 0,4.4937 0.946,8.0413 h 30.5096 q 9.6968,0 17.5016,-5.2032 8.0412,-5.4397 11.5888,-14.427 0,-0.2365 0.2366,-0.2365 -3.5477,-8.7508 -11.5889,-14.1904 -7.8048,-5.4397 -17.7381,-5.4397 z m 0,62.9111 q 11.3523,0 19.8666,-7.0952 8.5143,-7.0953 10.8794,-17.7381 -2.8381,3.3111 -6.3857,5.6762 -10.8794,7.5682 -24.3603,7.5682 h -24.5969 q 4.4937,5.4397 10.6429,8.5143 6.3857,3.0746 13.954,3.0746 z"
       id="text26-0-2-5-9-3"
       transform="translate(219.90509,22.305215)"
       aria-label="6" /></g></svg>
