<?xml version="1.0" encoding="UTF-8" standalone="no"?>
<!-- Created with Inkscape (http://www.inkscape.org/) -->

<svg
   width="22.902863mm"
   height="45.868271mm"
   viewBox="0 0 22.902864 45.868271"
   version="1.1"
   id="svg1"
   xml:space="preserve"
   xmlns="http://www.w3.org/2000/svg"
   xmlns:svg="http://www.w3.org/2000/svg"><defs
     id="defs1" /><g
     id="layer7"
     transform="matrix(0.26458333,0,0,0.26458333,1075.518,-421.30308)"><path
       style="font-size:236.508px;font-family:Zero;-inkscape-font-specification:Zero;fill:#ffffff;stroke:#000000;stroke-width:0;stroke-miterlimit:10"
       d="m -4198.2931,1613.5389 q 0,11.1159 -5.9127,21.5222 -2.6016,4.7302 -6.6223,8.7508 -3.7841,3.7841 -8.5143,6.6222 l -41.3889,24.3604 q -8.5142,5.2031 -12.5349,14.427 v 54.1603 h -11.5889 v -71.4254 q 0,-11.3524 5.4397,-20.8127 5.4397,-9.6969 15.1365,-15.6096 l 37.8413,-22.4682 q 7.5683,-4.2572 12.0619,-11.5889 4.4937,-7.3318 4.4937,-16.0826 v -3.7841 h -74.9731 v -11.5889 h 86.562 v 15.373 z m -26.962,26.9619 q 6.8588,-4.0206 10.6429,-10.6429 4.0206,-6.8587 4.4937,-14.9 -4.7302,5.2032 -10.6429,8.2778 l -37.3683,21.9953 q -6.6222,4.0206 -10.6428,10.4063 -3.7842,6.3857 -4.2572,13.954 3.3111,-2.8381 6.3857,-4.7302 z"
       id="text26-0-2-5-9-9"
       aria-label="7"
       transform="translate(219.90509,22.305215)" /></g></svg>
