<?xml version="1.0" encoding="UTF-8" standalone="no"?>
<!-- Created with Inkscape (http://www.inkscape.org/) -->

<svg
   width="63.8978mm"
   height="63.8978mm"
   viewBox="0 0 63.897803 63.897801"
   version="1.1"
   id="svg1"
   xml:space="preserve"
   xmlns="http://www.w3.org/2000/svg"
   xmlns:svg="http://www.w3.org/2000/svg"><defs
     id="defs1" /><g
     id="layer7"
     transform="matrix(0.26458333,0,0,0.26458333,1325.1641,-53.833733)"><g
       id="g2"
       transform="matrix(0.82773577,0,0,0.82773577,-5008.4944,203.46608)">
	<path
   style="fill:#efc75e"
   d="m 145.882,0 c 80.573,0 145.882,65.319 145.882,145.882 0,80.563 -65.31,145.882 -145.882,145.882 C 65.31,291.764 0,226.446 0,145.882 0,65.318 65.31,0 145.882,0 Z"
   id="path1" />
	<path
   style="fill:#cc9933"
   d="m 145.882,27.353 c -65.465,0 -118.529,53.065 -118.529,118.529 0,65.464 53.065,118.529 118.529,118.529 65.464,0 118.529,-53.065 118.529,-118.529 0,-65.464 -53.064,-118.529 -118.529,-118.529 z m 0,218.823 c -55.39,0 -100.294,-44.904 -100.294,-100.294 0,-55.39 44.905,-100.294 100.294,-100.294 55.389,0 100.294,44.904 100.294,100.294 0,55.39 -44.895,100.294 -100.294,100.294 z m 12.127,-107.907 c -5.452,-2.289 -25.493,-5.452 -25.493,-14.214 0,-6.464 7.495,-8.334 11.99,-8.334 4.094,0 8.999,1.295 11.589,3.875 1.641,1.577 2.316,2.726 2.854,4.313 0.684,1.869 1.094,3.875 3.684,3.875 h 13.357 c 3.136,0 3.957,-0.574 3.957,-4.021 0,-14.789 -11.589,-23.122 -24.809,-25.994 V 86.28 c 0,-2.58 -0.821,-4.167 -3.957,-4.167 h -10.64 c -3.136,0 -3.957,1.577 -3.957,4.167 v 11.051 c -14.178,2.726 -26.031,11.634 -26.031,27.718 0,18.235 12.683,23.979 26.441,28.566 11.589,3.884 23.724,4.021 23.724,12.063 0,8.042 -5.99,9.765 -13.357,9.765 -5.051,0 -10.631,-1.304 -13.366,-4.741 -1.769,-2.152 -2.453,-4.021 -2.58,-5.89 -0.274,-3.592 -1.769,-4.021 -4.914,-4.021 H 113.28 c -3.136,0 -3.957,0.729 -3.957,4.021 0,16.366 13.093,26.286 27.262,29.441 v 11.206 c 0,2.58 0.821,4.167 3.957,4.167 h 10.64 c 3.136,0 3.957,-1.586 3.957,-4.167 v -10.905 c 16.084,-2.453 27.125,-12.209 27.125,-29.441 0.016,-19.522 -14.435,-23.689 -24.255,-26.844 z"
   id="path2" />
</g></g></svg>
