<?xml version="1.0" encoding="UTF-8" standalone="no"?>
<!-- Created with Inkscape (http://www.inkscape.org/) -->

<svg
   width="169.73055mm"
   height="294.73056mm"
   viewBox="0 0 169.73055 294.73056"
   version="1.1"
   id="svg1"
   xml:space="preserve"
   xmlns="http://www.w3.org/2000/svg"
   xmlns:svg="http://www.w3.org/2000/svg"><defs
     id="defs1" /><g
     id="layer7"
     transform="matrix(0.26458333,0,0,0.26458333,1562.2832,-175.18598)"><g
       id="g14"><rect
         style="fill:#8981c5;fill-opacity:1;stroke:none;stroke-width:1.00157;stroke-linejoin:bevel;stroke-dasharray:none;stroke-opacity:1"
         id="rect1551-9-7"
         width="641.50128"
         height="1113.9423"
         x="-5904.6924"
         y="662.12024"
         ry="41.931297" /><g
         id="g60"
         transform="matrix(0.71840075,0,0,0.71840075,-1570.5766,359.58404)"><circle
           style="fill:#ffffff;fill-opacity:1;stroke:none;stroke-width:1.40221;stroke-linejoin:bevel;stroke-dasharray:none"
           id="path3-3-54"
           cx="-5577.3467"
           cy="1483.8049"
           r="211.78647" /><path
           id="path26-2"
           style="fill:#8981c5;fill-opacity:1;stroke:none;stroke-width:1.02425;stroke-linecap:butt;stroke-linejoin:miter;stroke-miterlimit:10;stroke-dasharray:none;stroke-opacity:1"
           d="m -5450.616,1498.5421 c 12.3395,-8.7966 28.7752,-8.9933 34.5394,-31.5947 h -12.7584 z m -3.7538,-31.5947 -38.2869,73.4372 c 6.8115,-7.8026 14.0232,-12.1932 22.7827,-18.2448 16.1541,-11.1604 21.2038,-38.9005 33.5314,-55.1924 z m -89.3508,102.4717 -25.1547,52.0919 c 19.1496,-19.6953 38.2995,-47.3439 57.4491,-57.2123 l 30.0309,-65.7566 z m 127.644,-113.5777 c -4.6451,-4.8423 -6.831,-10.2507 -12.0406,-14.6457 -3.2603,-2.7505 -8.7977,-5.0791 -13.4821,-6.7011 l 12.7643,21.3468 z m -20.266,0 c -5.2438,-11.5178 -6.3489,-24.0552 -22.5294,-32.8783 l 6.0048,32.8783 z m -33.7909,-39.2824 c -1.936,-3.1075 2.8815,-8.5124 -9.4778,-14.2409 -0.4689,-6.3472 -7.845,-6.7481 -12.2972,-9.6661 -4.0803,-0.3595 -10.4616,-2.4677 -19.5016,3.0105 -3.995,2.4209 -6.07,-2.2767 -10.5355,-3.0105 l -5.2566,7.6877 62.3189,48.6721 z m -60.8228,-26.4743 c -3.3712,2.2617 -12.4023,1.6048 -23.2714,0 l 17.2664,10.255 z m 60.8228,65.7567 -57.0687,-42.6936 15.7761,42.6936 z m -42.8016,11.106 -30.7855,80.2739 78.8373,-80.2739 z m -40.5443,85.3943 31.5338,-85.3943 h -46.9296 z m 16.5184,-139.1939 -31.9142,42.6936 h 46.9296 z m -42.047,62.3383 -20.2723,94.7911 20.2723,58.9193 20.2718,-58.9193 z m -162.9315,-8.5387 c 5.5587,5.7715 12.249,5.3621 16.0569,20.6998 6.1587,-1.1232 12.3175,5.1135 18.4762,10.8949 l -21.7686,-31.5947 z m 20.2721,0 56.3141,73.4372 -38.2932,-73.4372 z m 45.0527,31.5947 30.0309,65.7566 c 15.4288,27.8117 37.4694,40.0827 57.4428,57.2123 l -25.1546,-52.0919 z m -39.796,-64.0475 c -9.9237,12.0502 -18.7274,20.1922 -25.5288,21.3468 h 12.7645 z m 11.2615,21.3468 6.0052,-32.8783 -22.5234,32.8783 z m 69.0725,-63.1894 c -4.2586,-3.5172 -16.6077,-2.087 -30.0308,0 -14.674,6.7081 -22.0906,14.6503 -21.7752,23.907 l -5.2504,32.4528 62.3192,-48.6721 z m 32.2944,-2.5673 c -13.3124,3.0909 -15.5227,0.1239 -23.2841,0 l 6.0113,10.255 z m -84.1004,65.7567 h 41.2989 l 15.77,-42.6936 z m 42.8018,11.106 h -48.0522 l 78.8375,80.2739 z m 40.544,85.3943 15.3959,-85.3943 h -46.9357 z m -16.5182,-139.1939 -15.0218,42.6936 h 46.9359 z m 42.0471,42.6936 35.2874,-51.2323 -25.1547,-14.5244 c -6.1297,-2.1623 -13.0636,-1.5447 -20.2657,0 l -25.1546,14.5244 z m -90.6848,-68.5626 38.9964,-6.5795 c -13.7367,2.3176 54.2723,8.7704 129.2807,3.72 21.9986,-1.4812 41.5916,17.6376 43.4928,19.3625 19.5366,17.7234 22.7846,26.5181 43.2246,44.2188 28.0282,24.2721 -0.6999,27.0068 -26.3266,54.4986 l -55.8931,59.9614 c -27.3902,41.2292 -56.3246,50.879 -84.487,76.3185 -31.4884,-22.2641 -60.3824,-59.1163 -90.2897,-90.2706 -25.9786,-27.0616 -36.3438,-29.5564 -59.4467,-59.8035 l -20.271,-26.5397 c -3.2506,-4.256 67.9106,-72.5567 81.7196,-74.8865 z" /></g></g></g></svg>
