<?xml version="1.0" encoding="UTF-8" standalone="no"?>
<!-- Created with Inkscape (http://www.inkscape.org/) -->

<svg
   width="169.73055mm"
   height="294.73056mm"
   viewBox="0 0 169.73055 294.73056"
   version="1.1"
   id="svg1"
   xml:space="preserve"
   xmlns="http://www.w3.org/2000/svg"
   xmlns:svg="http://www.w3.org/2000/svg"><defs
     id="defs1" /><g
     id="layer7"
     transform="matrix(0.26458333,0,0,0.26458333,822.06047,-174.80112)"><g
       id="g2"><rect
         style="fill:#a5c882;fill-opacity:1;stroke:none;stroke-width:1.00157;stroke-linejoin:bevel;stroke-dasharray:none;stroke-opacity:1"
         id="rect1551-9-7-9-1-6-8"
         width="641.50128"
         height="1113.9423"
         x="-3107.0002"
         y="660.66565"
         ry="41.931297" /><g
         id="g59"
         transform="matrix(0.70348892,0,0,0.70348892,-825.62771,365.94685)"><circle
           style="fill:#ffffff;fill-opacity:1;stroke:none;stroke-width:2.85118;stroke-linejoin:bevel;stroke-dasharray:none"
           id="path3-3-9"
           cx="-2784.4751"
           cy="1487.8451"
           r="215.52196" /><path
           id="path111-2"
           style="fill:#a5c882;fill-opacity:1;stroke:none;stroke-width:0;stroke-linecap:butt;stroke-linejoin:miter;stroke-miterlimit:10;stroke-dasharray:none;stroke-opacity:1"
           d="m -2720.3549,1422.2344 v 0 0 l 87.4863,45.1475 -67.3232,-65.7828 v 0 l -67.3236,-65.7831 z m -7.5273,1.1968 -52.3009,-96.6421 -46.9505,96.7764 z m 0.3945,6.103 v 0 l -102.6795,1.9299 0.4461,102.6976 v 0 0 l 3e-4,-3e-4 102.6797,-1.9317 -0.4463,-102.6958 v 0 z m 8.2773,99.4849 95.6634,-49.1781 -97.8289,-50.0523 z m -117.6458,12.4485 v 0 l -8e-4,8e-4 -87.4874,-45.1471 67.3236,65.783 v 0 l 67.3233,65.7828 -47.1595,-86.4187 z m 1.2035,-115.3565 c 0,0 46.4208,-93.4335 47.4258,-94.4621 l -70.3824,72.0307 -70.3811,72.0292 c 1.0047,-1.0281 93.3377,-49.5978 93.3377,-49.5978 z m -98.0122,57.7541 97.8288,50.048 -2.1643,-99.2264 z m 164.6794,148.1874 c 9.8303,-8.888 35.8091,-34.4948 67.1326,-66.02 25.5824,-25.7471 49.7301,-51.9868 73.6309,-78.0399 -1.005,1.0285 -93.3391,49.5993 -93.3391,49.5993 0,0 -46.4197,93.4324 -47.4244,94.4606 z m -60.3443,-91.7819 52.301,96.6463 46.9516,-96.7766 z m 35.9725,93.6722 -133.3693,-131.0309 c -20.1229,-19.7694 -18.4509,-24.4765 1.8255,-44.0882 14.8416,-14.3551 8.7726,-5.9887 22.1895,-20.199 2.5956,-2.7484 18.9428,-24.878 22.0804,-27.9243 22.6484,-21.9903 58.2241,-51.6878 93.4135,-86.0259 6.805,-6.6404 21.1373,-1.2526 28.567,6.242 40.1367,40.4878 64.6383,78.8907 122.0333,121.6797 22.6159,16.8604 26.518,32.1219 13.8328,45.0162 -39.7372,40.3923 -42.9587,26.6468 -121.3154,124.2954 -10.6572,13.2812 -25.5512,24.3674 -34.8235,20.9879 -6.0881,-2.2189 -6.4581,-1.1171 -14.4338,-8.9529 z" /></g></g></g></svg>
