<?xml version="1.0" encoding="UTF-8" standalone="no"?>
<!-- Created with Inkscape (http://www.inkscape.org/) -->

<svg
   width="29.23484mm"
   height="28.717178mm"
   viewBox="0 0 29.234842 28.717179"
   version="1.1"
   id="svg1"
   xml:space="preserve"
   xmlns="http://www.w3.org/2000/svg"
   xmlns:svg="http://www.w3.org/2000/svg"><defs
     id="defs1" /><g
     id="layer2"
     transform="translate(-998.57971,-10.097131)"><g
       id="g22"><circle
         style="fill:#000000;fill-opacity:1;stroke:none;stroke-width:0.183748;stroke-linejoin:bevel;stroke-dasharray:none"
         id="path3-3-5-5-8-9-4-7-5"
         cx="1013.9249"
         cy="24.924681"
         r="13.889629" /><path
         id="path208-4-9-9-2-3-85-4"
         d="m 1005.7865,27.901045 2.1615,2.264616 z m 12.4673,-8.489093 c -0.995,-1.535268 -0.8422,-1.51439 -2.0767,-2.341271 l -2.5198,-0.261834 c -2.3565,0.703058 -4.3543,0.46922 -7.0693,2.109171 -0.2259,0.588446 -0.1257,1.377177 -0.2044,1.752118 -0.2133,1.016037 -0.2541,1.108305 -0.3764,1.992418 -0.207,0.09122 0.1801,0.533414 -0.3509,0.893916 -0.2838,0.19272 -0.8258,0.0636 -1.0944,0.35423 l -0.3888,0.54034 -0.4958,0.893815 c 0.3371,2.529057 0.9487,1.586257 1.4233,2.376128 1.3384,0.996413 2.1974,1.904828 2.83,2.838646 0.8266,0.157059 1.6107,0.363556 2.48,0.470609 l 0.6761,-0.02244 1.9614,-0.08065 1.8648,0.272722 1.4164,-0.300133 c 0.5966,-0.582274 0.6166,-0.424243 1.4038,-0.907261 0.4325,-0.42549 0.3757,-1.602119 1.1529,-2.443671 l 1.789,-1.149958 c 0.1356,-0.118277 1.0626,-1.6304 1.4372,-2.495722 0.4415,-1.01967 0.3536,-1.46907 0.7613,-2.45804 -0.7577,-0.460052 -1.5743,-0.243644 -2.2729,-1.384197 z m -10.2216,9.882325 2.1614,2.264617 z m 12.4673,-8.489092 c -0.995,-1.535272 -0.8422,-1.514393 -2.0768,-2.341277 l -2.5198,-0.261829 c -2.3564,0.703059 -4.3543,0.469217 -7.0693,2.109171 -0.2258,0.588447 -0.1256,1.377172 -0.2043,1.752116 -0.2134,1.016039 -0.2541,1.108305 -0.3765,1.992423 -0.207,0.09121 0.1801,0.533406 -0.3508,0.893916 -0.2839,0.192718 -0.8258,0.0636 -1.0944,0.354224 l -0.3888,0.540343 -0.4959,0.89381 c 0.3371,2.529057 0.9488,1.586262 1.4234,2.376133 1.3384,0.996413 2.1974,1.904826 2.83,2.838643 0.8265,0.15706 1.6106,0.363559 2.48,0.470612 l 0.6761,-0.02244 1.9613,-0.08064 1.8649,0.272725 1.4164,-0.300138 c 0.5965,-0.582271 0.6165,-0.424244 1.4037,-0.907262 0.4326,-0.425489 0.3757,-1.602113 1.153,-2.443667 l 1.7889,-1.149956 c 0.1356,-0.118277 1.0626,-1.630403 1.4373,-2.495722 0.4414,-1.01967 0.3535,-1.469073 0.7612,-2.45804 -0.7577,-0.460053 -1.5742,-0.243645 -2.2729,-1.3842 z"
         style="fill:#000000;fill-opacity:1;stroke:none;stroke-width:0;stroke-linecap:butt;stroke-linejoin:miter;stroke-miterlimit:10;stroke-dasharray:none;stroke-opacity:1" /><path
         id="path208-4-9-9-2-3-8-7-8"
         d="m 1009.1687,26.64425 1.3125,1.375207 z m 7.5708,-5.15508 c -0.6042,-0.932307 -0.5114,-0.919628 -1.2611,-1.421763 l -1.5302,-0.158996 c -1.4309,0.426935 -2.6441,0.284933 -4.2928,1.280814 -0.1372,0.357335 -0.076,0.8363 -0.1242,1.063987 -0.1295,0.617001 -0.1542,0.673026 -0.2286,1.209916 -0.1256,0.05539 0.1094,0.323919 -0.213,0.542838 -0.1723,0.117033 -0.5015,0.03862 -0.6646,0.215109 l -0.2361,0.328128 -0.3011,0.542777 c 0.2047,1.535792 0.5761,0.963266 0.8644,1.442926 0.8127,0.605081 1.3343,1.156724 1.7185,1.723792 0.5019,0.09538 0.9781,0.220771 1.506,0.285785 l 0.4106,-0.01363 1.191,-0.04897 1.1325,0.165614 0.8601,-0.182261 c 0.3623,-0.353592 0.3744,-0.257625 0.8524,-0.550942 0.2627,-0.258387 0.2281,-0.972902 0.7002,-1.483942 l 1.0863,-0.698323 c 0.082,-0.07182 0.6453,-0.990076 0.8728,-1.515549 0.2681,-0.619207 0.2147,-0.892109 0.4623,-1.492668 -0.4602,-0.279376 -0.956,-0.147958 -1.3803,-0.840571 z m -6.2071,6.001131 1.3125,1.375208 z m 7.5708,-5.155081 c -0.6042,-0.932307 -0.5114,-0.919628 -1.2611,-1.421762 l -1.5301,-0.158997 c -1.431,0.42694 -2.6443,0.284938 -4.2929,1.280817 -0.1372,0.357338 -0.076,0.836297 -0.1242,1.063987 -0.1295,0.616998 -0.1542,0.673029 -0.2285,1.209916 -0.1257,0.05539 0.1093,0.323916 -0.2131,0.542837 -0.1724,0.117034 -0.5015,0.03862 -0.6646,0.215107 l -0.2361,0.328131 -0.3011,0.542774 c 0.2047,1.535798 0.5761,0.963274 0.8644,1.442926 0.8127,0.605081 1.3344,1.156724 1.7185,1.723798 0.5019,0.09537 0.9781,0.220773 1.506,0.285779 l 0.4105,-0.01363 1.1911,-0.04897 1.1325,0.16561 0.8601,-0.182258 c 0.3622,-0.353592 0.3744,-0.257625 0.8524,-0.550944 0.2627,-0.258379 0.2282,-0.9729 0.7001,-1.483943 l 1.0864,-0.698317 c 0.082,-0.07182 0.6453,-0.990079 0.8728,-1.515554 0.2681,-0.619205 0.2147,-0.892107 0.4623,-1.492666 -0.4601,-0.279371 -0.956,-0.147957 -1.3803,-0.840568 z"
         style="font-variation-settings:normal;vector-effect:none;fill:#000000;fill-opacity:1;stroke:none;stroke-width:0;stroke-linecap:butt;stroke-linejoin:miter;stroke-miterlimit:10;stroke-dasharray:none;stroke-dashoffset:0;stroke-opacity:1;-inkscape-stroke:none;stop-color:#000000" /><circle
         style="fill:#393d3f;fill-opacity:1;stroke:#000000;stroke-width:0.183748;stroke-linejoin:bevel;stroke-dasharray:none;stroke-opacity:1"
         id="path3-3-5-5-8-9-4-7"
         cx="1012.5612"
         cy="24.078634"
         r="13.889629" /><path
         id="path208-4-9-9-2-3-85"
         d="m 1004.4228,27.054998 2.1615,2.264616 z m 12.4673,-8.489093 c -0.995,-1.535269 -0.8422,-1.51439 -2.0767,-2.341272 l -2.5198,-0.261834 c -2.3565,0.703059 -4.3543,0.46922 -7.0693,2.109171 -0.2259,0.588447 -0.1257,1.377178 -0.2044,1.752119 -0.2133,1.016037 -0.2541,1.108305 -0.3764,1.992418 -0.207,0.09122 0.1801,0.533413 -0.3509,0.893916 -0.2838,0.19272 -0.8258,0.0636 -1.0944,0.354229 l -0.3888,0.54034 -0.4958,0.893816 c 0.3371,2.529056 0.9487,1.586256 1.4233,2.376127 1.3384,0.996413 2.1974,1.904828 2.83,2.838646 0.8266,0.157059 1.6107,0.363556 2.48,0.470609 l 0.6761,-0.02244 1.9614,-0.08065 1.8648,0.272722 1.4164,-0.300132 c 0.5966,-0.582274 0.6166,-0.424244 1.4038,-0.907262 0.4325,-0.42549 0.3757,-1.602118 1.1529,-2.44367 l 1.789,-1.149959 c 0.1356,-0.118277 1.0626,-1.630399 1.4372,-2.495722 0.4415,-1.01967 0.3536,-1.46907 0.7613,-2.45804 -0.7577,-0.460052 -1.5743,-0.243644 -2.2729,-1.384197 z m -10.2216,9.882325 2.1614,2.264616 z m 12.4673,-8.489093 c -0.995,-1.535271 -0.8422,-1.514393 -2.0768,-2.341277 l -2.5198,-0.261829 c -2.3564,0.703059 -4.3543,0.469218 -7.0693,2.109171 -0.2258,0.588447 -0.1256,1.377173 -0.2043,1.752116 -0.2134,1.01604 -0.2541,1.108305 -0.3765,1.992424 -0.207,0.09121 0.1801,0.533405 -0.3508,0.893916 -0.2839,0.192717 -0.8258,0.06359 -1.0944,0.354224 l -0.3888,0.540343 -0.4959,0.89381 c 0.3371,2.529057 0.9488,1.586261 1.4234,2.376133 1.3384,0.996413 2.1974,1.904825 2.83,2.838643 0.8265,0.157059 1.6106,0.363558 2.48,0.470611 l 0.6761,-0.02244 1.9613,-0.08065 1.8649,0.272724 1.4164,-0.300138 c 0.5965,-0.582271 0.6165,-0.424243 1.4037,-0.907261 0.4326,-0.42549 0.3757,-1.602113 1.153,-2.443668 l 1.7889,-1.149956 c 0.1356,-0.118277 1.0626,-1.630402 1.4373,-2.495722 0.4414,-1.01967 0.3535,-1.469072 0.7612,-2.45804 -0.7577,-0.460052 -1.5742,-0.243644 -2.2729,-1.384199 z"
         style="fill:#ffffff;fill-opacity:1;stroke:#000000;stroke-width:0;stroke-linecap:butt;stroke-linejoin:miter;stroke-miterlimit:10;stroke-dasharray:none;stroke-opacity:1" /><path
         id="path208-4-9-9-2-3-8-7"
         d="m 1007.805,25.798203 1.3125,1.375206 z m 7.5708,-5.155081 c -0.6042,-0.932307 -0.5114,-0.919628 -1.2611,-1.421762 l -1.5302,-0.158996 c -1.4309,0.426934 -2.6441,0.284932 -4.2928,1.280813 -0.1372,0.357336 -0.076,0.836301 -0.1242,1.063988 -0.1295,0.617 -0.1542,0.673026 -0.2286,1.209915 -0.1256,0.05539 0.1094,0.323919 -0.213,0.542838 -0.1723,0.117033 -0.5015,0.03862 -0.6646,0.215109 l -0.2361,0.328128 -0.3011,0.542777 c 0.2047,1.535793 0.5761,0.963266 0.8644,1.442927 0.8127,0.60508 1.3343,1.156723 1.7185,1.723792 0.5019,0.09537 0.9781,0.220771 1.506,0.285784 l 0.4106,-0.01363 1.191,-0.04897 1.1325,0.165613 0.8601,-0.182261 c 0.3623,-0.353591 0.3744,-0.257624 0.8524,-0.550942 0.2627,-0.258386 0.2281,-0.972902 0.7002,-1.483942 l 1.0863,-0.698322 c 0.082,-0.07182 0.6453,-0.990076 0.8728,-1.515549 0.2681,-0.619207 0.2147,-0.892109 0.4623,-1.492669 -0.4602,-0.279376 -0.956,-0.147957 -1.3803,-0.84057 z m -6.2071,6.001131 1.3125,1.375209 z m 7.5708,-5.155081 c -0.6042,-0.932307 -0.5114,-0.919628 -1.2611,-1.421762 l -1.5301,-0.158996 c -1.431,0.42694 -2.6443,0.284938 -4.2929,1.280816 -0.1372,0.357338 -0.076,0.836298 -0.1242,1.063988 -0.1295,0.616997 -0.1542,0.673028 -0.2285,1.209915 -0.1257,0.05539 0.1093,0.323916 -0.2131,0.542838 -0.1724,0.117033 -0.5015,0.03862 -0.6646,0.215106 l -0.2361,0.328131 -0.3011,0.542774 c 0.2047,1.535798 0.5761,0.963274 0.8644,1.442927 0.8127,0.605081 1.3344,1.156724 1.7185,1.723797 0.5019,0.09537 0.9781,0.220774 1.506,0.285779 l 0.4105,-0.01363 1.1911,-0.04897 1.1325,0.165611 0.8601,-0.182258 c 0.3622,-0.353592 0.3744,-0.257625 0.8524,-0.550945 0.2627,-0.258379 0.2282,-0.972899 0.7001,-1.483942 l 1.0864,-0.698317 c 0.082,-0.07182 0.6453,-0.990079 0.8728,-1.515555 0.2681,-0.619204 0.2147,-0.892106 0.4623,-1.492665 -0.4601,-0.279371 -0.956,-0.147958 -1.3803,-0.840568 z"
         style="font-variation-settings:normal;vector-effect:none;fill:#393d3f;fill-opacity:1;stroke:#000000;stroke-width:0;stroke-linecap:butt;stroke-linejoin:miter;stroke-miterlimit:10;stroke-dasharray:none;stroke-dashoffset:0;stroke-opacity:1;-inkscape-stroke:none;stop-color:#000000" /></g></g></svg>
