<?xml version="1.0" encoding="UTF-8" standalone="no"?>
<!-- Created with Inkscape (http://www.inkscape.org/) -->

<svg
   width="32.726147mm"
   height="32.730198mm"
   viewBox="0 0 32.726148 32.730198"
   version="1.1"
   id="svg1"
   xml:space="preserve"
   xmlns="http://www.w3.org/2000/svg"
   xmlns:svg="http://www.w3.org/2000/svg"><defs
     id="defs1" /><g
     id="layer2"
     transform="translate(-895.30468,-6.3606244)"><g
       id="g25"><circle
         style="fill:#000000;fill-opacity:1;stroke:#000000;stroke-width:0.784893;stroke-linejoin:bevel;stroke-dasharray:none;stroke-opacity:1"
         id="path3-3-54-5-5-6-5-4"
         cx="-3741.9534"
         cy="88.021851"
         r="59.330544"
         transform="matrix(0.26458333,0,0,0.26458333,1902.2876,0)" /><path
         id="path26-2-9-7-6-9-6"
         style="fill:#000000;stroke:#000000;stroke-width:0;stroke-linecap:butt;stroke-linejoin:miter;stroke-miterlimit:10;stroke-dasharray:none;stroke-opacity:1"
         d="m -3760.0902,65.702215 35.8903,-0.0903 15.0237,15.07821 -32.7225,36.833295 c 0.1911,-0.21511 -32.8319,-36.390985 -32.8319,-36.390985 z"
         transform="matrix(0.26458333,0,0,0.26458333,1902.2876,0)" /><path
         id="path26-2-9-7-6-0-7-9"
         style="fill:#000000;fill-opacity:1;stroke:#000000;stroke-width:0;stroke-linecap:butt;stroke-linejoin:miter;stroke-miterlimit:10;stroke-dasharray:none;stroke-opacity:1"
         d="m -3752.1988,74.410845 20.2738,-0.051 8.4866,8.51741 -18.4843,20.806445 c 0.108,-0.12151 -18.5461,-20.556595 -18.5461,-20.556595 z"
         transform="matrix(0.26458333,0,0,0.26458333,1902.2876,0)" /><circle
         style="fill:#8981c5;fill-opacity:1;stroke:#000000;stroke-width:0.20767;stroke-linejoin:bevel;stroke-dasharray:none;stroke-opacity:1"
         id="path3-3-54-5-5-6-5"
         cx="911.10638"
         cy="22.162333"
         r="15.697873" /><path
         id="path26-2-9-7-6-9"
         style="fill:#ffffff;stroke:#000000;stroke-width:0;stroke-linecap:butt;stroke-linejoin:miter;stroke-miterlimit:10;stroke-dasharray:none;stroke-opacity:1"
         d="m 906.30771,16.256928 9.49597,-0.02389 3.97502,3.989443 -8.65783,9.745474 c 0.0506,-0.05691 -8.68677,-9.628447 -8.68677,-9.628447 z" /><path
         id="path26-2-9-7-6-0-7"
         style="fill:#8981c5;fill-opacity:1;stroke:#000000;stroke-width:0;stroke-linecap:butt;stroke-linejoin:miter;stroke-miterlimit:10;stroke-dasharray:none;stroke-opacity:1"
         d="m 908.39564,18.561087 5.36411,-0.01349 2.24541,2.253565 -4.89064,5.505037 c 0.0286,-0.03215 -4.90698,-5.438931 -4.90698,-5.438931 z" /></g></g></svg>
