<?xml version="1.0" encoding="UTF-8" standalone="no"?>
<!-- Created with Inkscape (http://www.inkscape.org/) -->

<svg
   width="29.70447mm"
   height="29.822741mm"
   viewBox="0 0 29.704471 29.822741"
   version="1.1"
   id="svg1"
   xml:space="preserve"
   xmlns="http://www.w3.org/2000/svg"
   xmlns:svg="http://www.w3.org/2000/svg"><defs
     id="defs1" /><g
     id="layer2"
     transform="translate(-966.82055,-9.590288)"><g
       id="g23"><circle
         style="fill:#000000;fill-opacity:1;stroke:#000000;stroke-width:0.719657;stroke-linejoin:bevel;stroke-dasharray:none;stroke-opacity:1"
         id="path3-3-6-0-4-2-4-6"
         cx="-3478.1138"
         cy="94.203522"
         r="54.399277"
         transform="matrix(0.26458333,0,0,0.26458333,1902.2876,0)" /><path
         id="path2-4-8"
         style="fill:#000000;stroke:#000000;stroke-width:0.86757;stroke-linejoin:bevel;stroke-opacity:1"
         d="m -3447.0033,94.20353 a 31.110313,29.673891 0 0 1 -31.1104,29.67389 31.110313,29.673891 0 0 1 -31.1103,-29.67389 31.110313,29.673891 0 0 1 31.1103,-29.67389 31.110313,29.673891 0 0 1 31.1104,29.67389 z"
         transform="matrix(0.26458333,0,0,0.26458333,1902.2876,0)" /><path
         id="path2-5-4-0"
         style="fill:#000000;fill-opacity:1;stroke:#000000;stroke-width:0.554197;stroke-linejoin:bevel;stroke-opacity:1"
         d="m -3458.2406,94.20353 a 19.873184,18.955602 0 0 1 -19.8732,18.9556 19.873184,18.955602 0 0 1 -19.8731,-18.9556 19.873184,18.955602 0 0 1 19.8731,-18.95561 19.873184,18.955602 0 0 1 19.8732,18.95561 z"
         transform="matrix(0.26458333,0,0,0.26458333,1902.2876,0)" /><circle
         style="fill:#05b2dc;fill-opacity:1;stroke:#000000;stroke-width:0.190409;stroke-linejoin:bevel;stroke-dasharray:none;stroke-opacity:1"
         id="path3-3-6-0-4-2-4"
         cx="981.3089"
         cy="24.078634"
         r="14.393142" /><path
         id="path2-4"
         style="fill:#ffffff;stroke:none;stroke-width:0.229545;stroke-linejoin:bevel"
         d="m 989.54019,24.078636 a 8.2312702,7.8512169 0 0 1 -8.23129,7.851217 8.2312702,7.8512169 0 0 1 -8.23127,-7.851217 8.2312702,7.8512169 0 0 1 8.23127,-7.851216 8.2312702,7.8512169 0 0 1 8.23129,7.851216 z" /><path
         id="path2-5-4"
         style="fill:#05b2dc;fill-opacity:1;stroke:none;stroke-width:0.146631;stroke-linejoin:bevel"
         d="m 986.56699,24.078636 a 5.2581132,5.0153363 0 0 1 -5.25812,5.015336 5.2581132,5.0153363 0 0 1 -5.25809,-5.015336 5.2581132,5.0153363 0 0 1 5.25809,-5.015338 5.2581132,5.0153363 0 0 1 5.25812,5.015338 z" /></g></g></svg>
