<?xml version="1.0" encoding="UTF-8" standalone="no"?>
<!-- Created with Inkscape (http://www.inkscape.org/) -->

<svg
   width="147.3997mm"
   height="172.13832mm"
   viewBox="0 0 147.39971 172.13832"
   version="1.1"
   id="svg1"
   xml:space="preserve"
   xmlns="http://www.w3.org/2000/svg"
   xmlns:svg="http://www.w3.org/2000/svg"><defs
     id="defs1" /><g
     id="layer2"
     transform="translate(-2259.8356,-327.5506)"><g
       id="g113"
       transform="translate(24.518892,168.33022)"><path
         fill-rule="nonzero"
         fill="#6e461e"
         fill-opacity="1"
         d="m 2275.338,326.16419 10.8634,-7.35149 84.093,-56.89162 12.2763,-8.30543 -1.7281,-2.56005 -12.2762,8.30543 -84.092,56.89162 -10.8666,7.35252 1.7302,2.55902"
         id="path112-3"
         style="fill:#808080;stroke-width:0.264583" /><path
         fill-rule="nonzero"
         fill="#6e461e"
         fill-opacity="1"
         d="m 2324.1164,186.89104 h -25.0931 l -3.884,-8.09356 -1.6805,-3.50056 3.0066,2.17454 0.1074,0.0713 7.1128,4.30258 c 0.8754,0.52607 1.8066,0.92605 2.7378,1.12965 v 0.008 c 0.9261,0.2005 1.8583,0.21187 2.742,-0.0269 1.0232,-0.27492 1.7725,-0.84129 2.3761,-1.63711 0.494,-0.65629 0.865,-1.4614 1.2216,-2.38435 l 0.051,-0.12195 0.019,-0.0816 1.2939,-5.51904 5.6328,8.19381 0.061,0.0847 0.029,0.0372 c 0.524,0.62115 1.172,1.15341 1.9203,1.52859 0.7152,0.3576 1.5058,0.5643 2.342,0.5643 0.8361,0 1.6267,-0.2067 2.342,-0.5643 0.743,-0.37311 1.3962,-0.90744 1.9182,-1.52859 l 0.031,-0.0372 0.059,-0.0847 5.6327,-8.19381 1.2961,5.51904 0.022,0.0796 0.044,0.12402 c 0.3576,0.92295 0.7276,1.72806 1.2258,2.38435 0.5974,0.79582 1.3467,1.36219 2.3761,1.63711 0.8805,0.23875 1.8117,0.22738 2.7409,0.0269 l 0.01,-0.008 c 0.9312,-0.2036 1.8593,-0.60358 2.7378,-1.12965 l 7.1097,-4.30258 0.1085,-0.0713 3.0055,-2.17454 -1.6795,3.50056 -3.884,8.09356 z m -26.0563,3.09025 h 53.0779 l 0.4206,-0.8816 4.3109,-8.97413 4.3067,-8.97516 2.6303,-5.47357 -4.9237,3.56154 -7.8817,5.69888 -7.0487,4.26537 c -0.6087,0.36484 -1.2278,0.63665 -1.7993,0.76378 v -0.005 c -0.4651,0.10335 -0.9075,0.11369 -1.2909,0.0103 -0.2884,-0.0765 -0.5157,-0.25631 -0.709,-0.51263 -0.2801,-0.37103 -0.5209,-0.89193 -0.7648,-1.50791 l -2.0743,-8.83771 -0.7938,-3.39721 -1.976,2.87321 -7.5438,10.97298 c -0.2666,0.30902 -0.5787,0.57154 -0.9157,0.74 -0.2883,0.14366 -0.616,0.22841 -0.9653,0.22841 -0.3493,0 -0.677,-0.0848 -0.9653,-0.22841 -0.3359,-0.16846 -0.6491,-0.43098 -0.9157,-0.74 l -7.5437,-10.97298 -1.973,-2.87321 -0.8,3.39721 -2.0712,8.82634 c -0.246,0.62218 -0.4868,1.14618 -0.7669,1.51928 -0.1932,0.25632 -0.4206,0.43615 -0.709,0.51263 -0.3844,0.10336 -0.8258,0.093 -1.2919,-0.0103 v 0.005 c -0.5736,-0.12713 -1.1927,-0.39894 -1.7994,-0.76378 l -7.0507,-4.26537 -7.8796,-5.69888 -4.9237,-3.56154 2.6303,5.47357 4.3077,8.97516 4.3067,8.97413 0.4238,0.8816 h 0.9653"
         id="path131-0"
         style="fill:#808080;stroke-width:0.264583" /><path
         fill-rule="nonzero"
         fill="#6e461e"
         fill-opacity="1"
         d="m 2292.3901,189.98439 h 63.4494 l 1.2444,4.13205 h -65.9371 z m 64.5987,-3.09128 h -66.892 l -0.3339,1.10381 -2.1745,7.22539 -0.5953,1.98438 h 74.2466 l -0.5974,-1.98438 -2.1745,-7.22539 -0.3339,-1.10381 h -1.1451"
         id="path132-1"
         style="fill:#808080;stroke-width:0.264583" /><path
         fill-rule="evenodd"
         fill="#6e461e"
         fill-opacity="1"
         d="m 2286.9135,163.11058 c 2.0929,0 3.7889,1.69602 3.7889,3.78891 0,2.09187 -1.696,3.78789 -3.7889,3.78789 -2.0898,0 -3.7858,-1.69602 -3.7858,-3.78789 0,-2.09289 1.696,-3.78891 3.7858,-3.78891"
         id="path133-7"
         style="fill:#808080;stroke-width:0.264583" /><path
         fill-rule="evenodd"
         fill="#6e461e"
         fill-opacity="1"
         d="m 2312.4778,159.22038 c 2.0929,0 3.7889,1.69602 3.7889,3.78891 0,2.0929 -1.696,3.78892 -3.7889,3.78892 -2.0929,0 -3.7889,-1.69602 -3.7889,-3.78892 0,-2.09289 1.696,-3.78891 3.7889,-3.78891"
         id="path134-8"
         style="fill:#808080;stroke-width:0.264583" /><path
         fill-rule="evenodd"
         fill="#6e461e"
         fill-opacity="1"
         d="m 2361.3172,163.11058 c -2.0929,0 -3.7889,1.69602 -3.7889,3.78891 0,2.09187 1.696,3.78789 3.7889,3.78789 2.0929,0 3.7889,-1.69602 3.7889,-3.78789 0,-2.09289 -1.696,-3.78891 -3.7889,-3.78891"
         id="path135-9"
         style="fill:#808080;stroke-width:0.264583" /><path
         fill-rule="evenodd"
         fill="#6e461e"
         fill-opacity="1"
         d="m 2335.7529,159.22038 c -2.0898,0 -3.7889,1.69602 -3.7889,3.78891 0,2.0929 1.6991,3.78892 3.7889,3.78892 2.0929,0 3.7889,-1.69602 3.7889,-3.78892 0,-2.09289 -1.696,-3.78891 -3.7889,-3.78891"
         id="path136-1"
         style="fill:#808080;stroke-width:0.264583" /><path
         fill-rule="nonzero"
         fill="#6e461e"
         fill-opacity="1"
         d="m 2293.864,195.47966 -1.4842,12.51397 -0.064,0.5457 0.2998,0.46819 2.2913,3.57808 c -1.1803,2.06809 -2.0826,3.85506 -2.9848,5.63789 -1.0191,2.01642 -2.0371,4.03593 -3.3683,6.30763 l -0.3834,0.65422 0.2728,0.69247 0.1799,0.45268 v -0.001 c 1.0397,2.63654 1.4314,3.62459 4.4452,3.37448 h 4.6757 c 0.7141,0 1.3911,-0.17364 1.9895,-0.4961 0.6005,-0.32349 1.1162,-0.79788 1.5079,-1.3963 l 1.4759,-2.25929 -2.5848,-1.69188 -1.4759,2.26032 c -0.1085,0.16537 -0.2408,0.29249 -0.3866,0.36897 -0.1426,0.0796 -0.3255,0.12196 -0.526,0.12196 h -4.7977 l -0.071,0.007 c -0.7296,0.0641 -0.926,-0.27698 -1.2888,-1.18649 1.233,-2.1456 2.1622,-3.98425 3.0913,-5.82083 1.016,-2.01125 2.034,-4.0287 3.36,-6.29212 l 0.4785,-0.81856 -0.5074,-0.79168 -2.5012,-3.90054 1.4211,-11.96929 -3.0665,-0.35967"
         id="path137-5"
         style="fill:#808080;stroke-width:0.264583" /><path
         fill-rule="nonzero"
         fill="#6e461e"
         fill-opacity="1"
         d="m 2309.3524,196.17213 c 2.7626,7.84758 11.0019,12.79818 18.926,17.56068 6.0988,3.66489 12.0065,7.21713 14.5707,11.66854 1.3705,2.38435 1.1772,7.0435 1.0211,10.71769 -0.047,1.13275 -0.093,2.18902 -0.093,2.93936 h 3.0933 c 0,-0.92398 0.039,-1.83762 0.08,-2.81947 0.1716,-4.06073 0.3866,-9.20977 -1.4314,-12.3703 -2.9662,-5.15214 -9.2129,-8.90592 -15.658,-12.77855 -7.4538,-4.47931 -15.2032,-9.13949 -17.5999,-15.94425 l -2.9084,1.0263"
         id="path138-4"
         style="fill:#808080;stroke-width:0.264583" /><path
         fill-rule="nonzero"
         fill="#6e461e"
         fill-opacity="1"
         d="m 2344.386,248.34259 c -0.039,-0.68627 0.2036,-1.11828 0.5508,-1.29605 v -0.003 c 0.1561,-0.0775 0.3339,-0.12092 0.5106,-0.12402 0.2015,-0.003 0.4206,0.0372 0.6305,0.12506 v -0.003 c 0.6325,0.26872 1.1772,0.99529 1.2464,2.22932 l 0.01,0.28112 v 0 c 0,1.07901 -0.3763,1.93374 -1.0005,2.51665 -0.6687,0.62115 -1.6402,0.99115 -2.7699,1.05316 v 0.001 l -0.3596,0.009 v -0.005 c -1.2465,0 -2.4102,-0.52813 -3.2815,-1.38286 -0.8888,-0.8723 -1.479,-2.07739 -1.5523,-3.40135 l -0.01,-0.47131 c 0,-1.97508 0.7142,-3.74655 1.8914,-5.04259 1.1699,-1.28364 2.8081,-2.11253 4.6654,-2.21588 l 0.4092,-0.008 c 2.0774,0 4.0142,0.87953 5.4591,2.29753 1.4656,1.43557 2.4391,3.42305 2.5611,5.61103 0.01,0.17467 0.016,0.39377 0.016,0.65733 0,2.76365 -0.9994,5.24722 -2.6593,7.0683 -1.6453,1.80557 -3.9501,2.97449 -6.5722,3.12126 -0.1426,0.007 -0.3379,0.0124 -0.5767,0.0124 -2.9073,0 -5.6141,-1.23093 -7.6378,-3.2122 -2.0246,-1.98334 -3.3682,-4.71806 -3.5615,-7.73183 v -34.91365 h -3.0902 v 34.91363 l 0.01,0.0847 c 0.217,3.84369 1.9151,7.32875 4.4845,9.84539 2.5879,2.53318 6.0585,4.10518 9.7999,4.10518 0.2067,0 0.4578,-0.009 0.7493,-0.0248 3.4603,-0.1943 6.5081,-1.73632 8.6806,-4.12274 2.1642,-2.37401 3.4685,-5.59036 3.4685,-9.14569 0,-0.22738 -0.01,-0.50953 -0.026,-0.82786 -0.1675,-2.98277 -1.4873,-5.68854 -3.4799,-7.63881 -2.0102,-1.97094 -4.7098,-3.19051 -7.6202,-3.19051 -0.1478,0 -0.3431,0.007 -0.5788,0.0196 -2.7016,0.15193 -5.0798,1.35495 -6.7758,3.2184 -1.6857,1.85002 -2.7047,4.35323 -2.7047,7.11998 0,0.17054 0.01,0.38241 0.022,0.64183 0.1189,2.1208 1.0553,4.04213 2.4733,5.42912 1.4314,1.40663 3.361,2.27686 5.4405,2.27686 l 0.042,-0.006 0.4445,-0.0124 h 0.042 c 1.852,-0.10335 3.5026,-0.75654 4.7015,-1.87482 1.2412,-1.15962 1.9895,-2.78226 1.9895,-4.77387 l -0.01,-0.0413 -0.01,-0.3669 v -0.0434 c -0.1458,-2.60449 -1.5245,-4.223 -3.1378,-4.89996 l -0.01,-0.006 c -0.6005,-0.25011 -1.2485,-0.36793 -1.8758,-0.35346 -0.6481,0.0134 -1.2858,0.1726 -1.8542,0.46302 v 0 c -1.3653,0.70176 -2.3389,2.13217 -2.218,4.20956 l 3.0799,-0.17053"
         id="path139-9"
         style="fill:#808080;stroke-width:0.264583" /><path
         fill-rule="nonzero"
         fill="#6e461e"
         fill-opacity="1"
         d="m 2322.2137,196.27341 c 2.9186,6.64559 10.7714,12.55427 18.4495,18.32963 5.5221,4.15479 10.9595,8.24549 14.1428,12.31243 3.7403,4.7842 4.2085,9.71517 -2.681,15.10192 l 1.8945,2.42673 c 8.7498,-6.84093 8.078,-13.2023 3.2122,-19.42414 -3.4365,-4.39353 -9.0331,-8.60206 -14.7185,-12.87983 -7.3587,-5.53559 -14.8828,-11.19726 -17.4728,-17.09767 l -2.8267,1.23093"
         id="path140-2"
         style="fill:#808080;stroke-width:0.264583" /><path
         fill-rule="nonzero"
         fill="#6e461e"
         fill-opacity="1"
         d="m 2336.8195,196.33646 c 2.6344,5.41052 7.4528,8.89041 12.0571,12.2101 7.149,5.16248 13.7346,9.91775 8.4078,21.54391 l 2.8019,1.27951 c 6.3789,-13.92267 -1.1906,-19.389 -9.4113,-25.32352 -4.2881,-3.09232 -8.7757,-6.33346 -11.0805,-11.06496 l -2.775,1.35496"
         id="path141-5"
         style="fill:#808080;stroke-width:0.264583" /><path
         fill-rule="nonzero"
         fill="#6e461e"
         fill-opacity="1"
         d="m 2336.004,217.84626 v 26.2909 h 3.0934 v -26.2909 h -3.0934"
         id="path142-7"
         style="fill:#808080;stroke-width:0.264583" /><path
         fill-rule="nonzero"
         fill="#6e461e"
         fill-opacity="1"
         d="m 2345.8122,196.09875 c 1.1565,3.84162 4.1992,5.91075 7.183,7.9344 3.5853,2.43706 7.0704,4.80487 5.2607,10.72596 l 2.9445,0.89296 c 2.4712,-8.08426 -1.9368,-11.08149 -6.4771,-14.1645 -2.529,-1.7167 -5.1087,-3.4737 -5.9531,-6.27042 l -2.958,0.8816"
         id="path143-4"
         style="fill:#808080;stroke-width:0.264583" /><path
         fill-rule="nonzero"
         fill="#6e461e"
         fill-opacity="1"
         d="m 2294.544,228.15777 v 11.25203 h 3.0934 v -11.25203 h -3.0934"
         id="path144-9"
         style="fill:#808080;stroke-width:0.264583" /><path
         fill-rule="nonzero"
         fill="#6e461e"
         fill-opacity="1"
         d="m 2300.3411,212.23006 c 1.0769,2.39262 2.6138,3.92327 4.3129,4.7563 1.111,0.5457 2.2882,0.78652 3.4447,0.77411 h 0.01 c 1.1452,-0.0134 2.2779,-0.27802 3.3073,-0.74104 1.7756,-0.79995 3.2918,-2.20658 4.1538,-3.96668 l 0.6955,-1.42317 -1.5286,-0.41238 c -4.4607,-1.20406 -8.9379,-1.59577 -13.4255,-0.81028 l -1.6557,0.28835 z m 5.458,2.41639 c -0.7885,-0.3855 -1.5316,-1.01079 -2.1828,-1.91719 2.866,-0.27699 5.7444,-0.0476 8.6259,0.5736 -0.5375,0.56018 -1.1886,1.0139 -1.9027,1.33532 -0.7142,0.3235 -1.4925,0.50747 -2.2624,0.51677 h -0.01 c -0.7669,0.007 -1.5452,-0.14986 -2.2728,-0.5085"
         id="path145-9"
         style="fill:#808080;stroke-width:0.264583" /><path
         fill-rule="nonzero"
         fill="#6e461e"
         fill-opacity="1"
         d="m 2305.4126,245.77633 c -0.2884,-1.48208 -1.296,-2.39055 -2.5766,-2.77709 -0.6511,-0.1943 -1.3808,-0.23978 -2.1063,-0.14676 -0.6987,0.0899 -1.4077,0.31523 -2.0371,0.65939 -1.4449,0.79065 -2.5611,2.21279 -2.5662,4.16822 v 0.031 l 0.01,0.33796 v 0.0413 c 0.097,2.00297 0.9549,3.71553 2.2727,4.92683 1.3064,1.19992 3.0716,1.90892 4.9919,1.91719 h 0.037 l 0.3463,-0.008 h 0.04 c 2.0825,-0.10336 3.9687,-1.06764 5.3257,-2.53938 1.3416,-1.45314 2.1829,-3.42098 2.1932,-5.54488 v -0.006 c 0,-0.23461 0,-0.44958 -0.01,-0.63665 -0.1406,-2.76675 -1.2806,-5.21725 -3.0562,-6.97735 -1.788,-1.77354 -4.2199,-2.85564 -6.9215,-2.87218 h -0.01 c -0.2088,-0.002 -0.399,0.003 -0.5685,0.0104 h -0.01 c -3.4654,0.17157 -6.135,1.74046 -7.9271,4.01009 v 0.003 c -1.2992,1.64951 -2.125,3.66179 -2.4392,5.75778 -0.3152,2.0836 -0.1302,4.28088 0.5767,6.3159 1.0718,3.07164 3.3332,5.77432 6.8813,7.19956 1.6939,0.68109 3.4189,0.97461 5.1283,0.88366 1.7085,-0.091 3.3941,-0.57154 5.0106,-1.43143 l 16.3783,-8.72608 7.3897,-3.93672 -1.45,-2.71818 -7.3897,3.93775 -16.3784,8.72608 c -1.2092,0.64285 -2.4598,1.00149 -3.7196,1.0697 -1.2599,0.0682 -2.5477,-0.15503 -3.823,-0.66766 -2.6407,-1.0604 -4.3233,-3.07061 -5.1171,-5.35057 -0.5374,-1.5472 -0.6748,-3.23185 -0.434,-4.84415 0.2408,-1.59577 0.8516,-3.10369 1.8045,-4.31188 h 0.01 c 1.2671,-1.60404 3.1698,-2.71405 5.6461,-2.83704 l 0.4104,-0.0114 h 0.01 c 1.8604,0.0114 3.5357,0.75758 4.7687,1.97818 1.2454,1.23816 2.0505,2.97139 2.1477,4.9382 l 0.011,0.47232 v 0.006 c -0.01,1.32189 -0.5354,2.55695 -1.3839,3.47369 -0.8289,0.89917 -1.9658,1.48828 -3.1988,1.55029 v 0.001 l -0.3049,0.007 c -1.1162,-0.0124 -2.1321,-0.42271 -2.8783,-1.10794 -0.7431,-0.68316 -1.2279,-1.65778 -1.2837,-2.80189 v 0 l -0.01,-0.29663 c 0.015,-0.64595 0.4279,-1.14101 0.9602,-1.43143 0.2987,-0.16227 0.6294,-0.26872 0.9498,-0.31109 0.2987,-0.0383 0.5901,-0.0217 0.8392,0.0517 0.216,0.0661 0.3886,0.2005 0.4279,0.39998 l 3.0293,-0.58188"
         id="path146-4"
         style="fill:#808080;stroke-width:0.264583" /><path
         fill-rule="nonzero"
         fill="#6e461e"
         fill-opacity="1"
         d="m 2314.3609,248.66918 16.5923,-8.83874 -1.4501,-2.71714 -16.5922,8.83873 1.45,2.71715"
         id="path147-5"
         style="fill:#808080;stroke-width:0.264583" /><path
         fill-rule="nonzero"
         fill="#6e461e"
         fill-opacity="1"
         d="m 2353.7477,196.25688 c 0.4568,1.0821 0.8464,2.29443 1.0231,3.5481 0.1675,1.20716 0.1427,2.45566 -0.2036,3.66179 l 2.958,0.85783 c 0.4816,-1.67018 0.5219,-3.34966 0.2987,-4.94233 -0.216,-1.54513 -0.6873,-3.01687 -1.2382,-4.32119 l -2.838,1.1958"
         id="path148-9"
         style="fill:#808080;stroke-width:0.264583" /><path
         fill-rule="nonzero"
         fill="#6e461e"
         fill-opacity="1"
         d="m 2297.0999,235.27982 c 2.7327,-2.37195 6.4534,-0.3483 10.3612,1.7787 3.5429,1.92753 7.2181,3.92844 11.0856,3.5357 1.4583,-0.14676 2.7967,-0.60978 3.9057,-1.28984 1.1875,-0.72761 2.1404,-1.71876 2.7254,-2.85254 0.5871,-1.13998 0.7752,-2.48771 0.6026,-3.79925 -0.1344,-1.02733 -0.5003,-2.04742 -1.0635,-2.93006 -0.5871,-0.9188 -1.3912,-1.70222 -2.3834,-2.21692 h -0.01 c -1.05,-0.5426 -2.3099,-0.79271 -3.7331,-0.60461 l -0.042,0.006 c -2.6675,0.42995 -4.0297,1.81798 -4.4875,3.39101 -0.3256,1.12448 -0.1592,2.3182 0.3441,3.31659 v -0.002 c 0.5002,0.99735 1.3498,1.82934 2.3792,2.23242 1.4211,0.555 3.1088,0.35243 4.6405,-1.2206 l -2.2086,-2.14871 c -0.5085,0.5209 -0.9716,0.62529 -1.3105,0.49403 -0.3091,-0.11989 -0.5788,-0.39894 -0.7483,-0.73691 v -0.006 c -0.1726,-0.34313 -0.2388,-0.73484 -0.1406,-1.07177 0.1488,-0.51573 0.7379,-0.99632 1.9844,-1.20096 0.7441,-0.0971 1.3839,0.0269 1.9027,0.29043 v 0.003 c 0.5023,0.26148 0.9157,0.66249 1.2113,1.12861 0.3204,0.50126 0.5292,1.08521 0.6088,1.67535 0.093,0.70694 0,1.41594 -0.2936,1.98644 -0.3255,0.62942 -0.8785,1.19787 -1.5875,1.63298 -0.7358,0.44959 -1.6298,0.75758 -2.6034,0.85576 -2.929,0.29869 -6.1785,-1.46967 -9.308,-3.17293 -4.871,-2.651 -9.5064,-5.17384 -13.8513,-1.4056 l 2.0164,2.33164"
         id="path149-3"
         style="fill:#808080;stroke-width:0.264583" /><path
         fill-rule="nonzero"
         fill="#6e461e"
         fill-opacity="1"
         d="m 2317.3488,206.03922 c 0.7059,3.30109 2.4309,8.34162 5.1987,12.18221 2.0691,2.87217 4.7335,5.1077 8.0274,5.60379 l 0.4579,-3.05511 c -2.3544,-0.35347 -4.3636,-2.09393 -5.9852,-4.34806 -2.4764,-3.43751 -4.0349,-8.01294 -4.6778,-11.02361 l -3.021,0.64078"
         id="path150-5"
         style="fill:#808080;stroke-width:0.264583" /><path
         fill-rule="nonzero"
         fill="#6e461e"
         fill-opacity="1"
         d="m 2299.8729,178.32102 4.8307,-4.6116 h 39.0581 l 4.7894,4.56923 2.127,-2.23553 -5.2359,-4.99504 -0.4506,-0.42891 h -41.5127 l -0.4496,0.42891 -5.2834,5.03742 2.127,2.23552"
         id="path151-7"
         style="fill:#808080;stroke-width:0.264583" /><path
         fill-rule="nonzero"
         fill="#6e461e"
         fill-opacity="1"
         d="m 2380.9863,250.95845 -10.8645,7.35149 -84.092,56.89161 -12.2773,8.30544 1.7281,2.56005 12.2773,-8.30544 84.092,-56.89161 10.8665,-7.35149 -1.7301,-2.56005"
         id="path152-0"
         style="fill:#808080;stroke-width:0.264583" /><path
         fill-rule="nonzero"
         fill="#6e461e"
         fill-opacity="1"
         d="m 2307.9158,257.34255 c 4.1651,8.50801 2.4712,15.07918 0.6718,22.05654 v 0 l -0.1695,0.65939 -1.0976,4.2602 3.5129,-2.6417 27.5591,-20.70467 -1.849,-2.46394 -24.0802,18.09192 c 1.4717,-6.29109 2.1487,-12.59251 -1.7777,-20.61166 l -2.7678,1.35392"
         id="path154-8"
         style="fill:#808080;stroke-width:0.264583" /><path
         fill-rule="nonzero"
         fill="#6e461e"
         fill-opacity="1"
         d="m 2302.1642,262.93188 -15.9597,9.24284 -2.064,1.19476 1.9369,1.38906 c 2.1828,1.56683 4.5247,6.72311 6.3313,13.30668 1.8046,6.56705 3.0107,14.45184 2.9735,21.62556 l 3.0799,0.0124 c 0.037,-7.45795 -1.2113,-15.64349 -3.082,-22.44824 -1.5978,-5.81153 -3.6958,-10.70012 -5.8921,-13.41831 l 14.2214,-8.23619 -1.5452,-2.66857"
         id="path155-1"
         style="fill:#808080;stroke-width:0.264583" /><path
         fill-rule="nonzero"
         fill="#6e461e"
         fill-opacity="1"
         d="m 2285.9399,305.21146 -13.8038,-12.36927 -0.4444,-0.39894 h -31.1681 v 3.75791 c 0,1.86345 0.7648,3.56258 1.9957,4.79454 v 0.003 l 0.01,0.003 c 1.231,1.23094 2.9291,1.99472 4.7946,1.99472 v -0.006 l 12.0437,0.001 c 0.032,0.39171 0.077,0.77308 0.1323,1.14205 0.4527,3.07992 1.6381,5.72575 3.4633,7.61194 1.8873,1.94717 4.4215,3.06648 7.5097,3.02617 0.5767,-0.006 1.1606,-0.0537 1.7322,-0.13746 l -0.4465,-3.05408 c -0.4765,0.0693 -0.9209,0.10853 -1.3229,0.11266 -2.1777,0.03 -3.9564,-0.74828 -5.2607,-2.096 -1.3622,-1.40766 -2.2614,-3.46542 -2.6221,-5.91075 -0.1085,-0.73897 -0.1684,-1.49551 -0.1767,-2.25309 l -0.022,-1.52032 h -1.519 l -13.5123,-0.002 v -0.006 c -1.0212,0 -1.9503,-0.41341 -2.6169,-1.0821 l -0.01,-0.006 c -0.6666,-0.6656 -1.0821,-1.59371 -1.0821,-2.61483 v -0.66663 h 26.9131 l 13.3594,11.97033 2.0505,-2.2934"
         id="path160-2"
         style="fill:#808080;stroke-width:0.264583" /><path
         fill-rule="nonzero"
         fill="#6e461e"
         fill-opacity="1"
         d="m 2257.5365,299.90636 h -14.1501 c -0.5343,0 -1.0232,0.21911 -1.3756,0.57051 l -0.01,0.0124 c -0.3493,0.35553 -0.5664,0.84026 -0.5664,1.36426 v 2.89595 c 0,1.33325 0.5478,2.54558 1.4211,3.41994 0.8755,0.8754 2.0878,1.4211 3.421,1.4211 h 11.2552 c 1.326,0 2.5373,-0.5457 3.4158,-1.4211 h 0.01 c 0.8764,-0.87436 1.421,-2.08669 1.421,-3.41994 v -0.002 c 0,-1.32602 -0.5446,-2.53835 -1.421,-3.41478 l -0.01,-0.006 c -0.8785,-0.87437 -2.0898,-1.42007 -3.4158,-1.42007 z m -13.0039,3.09129 h 13.0039 c 0.4816,0 0.9188,0.19637 1.2361,0.50849 l 0.01,0.006 c 0.3122,0.3173 0.5075,0.75448 0.5075,1.23507 v 0.002 c 0,0.47852 -0.1953,0.91777 -0.5126,1.23506 v 0.003 c -0.3173,0.31316 -0.7565,0.5116 -1.2382,0.5116 h -11.2558 c -0.4785,0 -0.9177,-0.19844 -1.2361,-0.5147 -0.3142,-0.31729 -0.5126,-0.75654 -0.5126,-1.23507 v -1.75183"
         id="path161-5"
         style="fill:#808080;stroke-width:0.264583" /><path
         fill-rule="nonzero"
         fill="#6e461e"
         fill-opacity="1"
         d="m 2257.5365,313.09212 h -11.2552 c -0.4785,0 -0.9177,-0.19844 -1.2361,-0.5147 -0.3142,-0.31729 -0.5126,-0.75654 -0.5126,-1.23506 v -1.75183 h 13.0039 c 0.4816,0 0.9188,0.19637 1.2361,0.50849 l 0.01,0.006 c 0.3122,0.3173 0.5075,0.75448 0.5075,1.23507 v 0.002 c 0,0.47852 -0.1953,0.91777 -0.5126,1.23506 v 0.003 c -0.3173,0.31316 -0.7565,0.5116 -1.2382,0.5116 z m -11.2552,3.09128 h 11.2552 c 1.326,0 2.5373,-0.5457 3.4158,-1.4211 h 0.01 c 0.8764,-0.87436 1.421,-2.08669 1.421,-3.41994 v -0.002 c 0,-1.32602 -0.5446,-2.53835 -1.421,-3.41478 l -0.01,-0.006 c -0.8785,-0.87436 -2.0898,-1.42007 -3.4158,-1.42007 h -16.0972 v 4.84312 c 0,1.33325 0.5477,2.54558 1.4211,3.41994 0.8754,0.8754 2.0877,1.4211 3.4209,1.4211"
         id="path162-3"
         style="fill:#808080;stroke-width:0.264583" /><path
         fill-rule="nonzero"
         fill="#6e461e"
         fill-opacity="1"
         d="m 2260.9337,313.09212 h -16.0972 v 4.84311 c 0,1.33326 0.5477,2.54559 1.4211,3.41995 0.8754,0.8754 2.0877,1.4211 3.4209,1.4211 h 11.2552 c 1.326,0 2.5404,-0.5457 3.4158,-1.4211 h 0.01 c 0.8764,-0.87436 1.4211,-2.08669 1.4211,-3.41995 v -0.002 c 0,-1.32602 -0.5447,-2.53835 -1.4211,-3.41478 l -0.01,-0.006 c -0.8754,-0.87437 -2.0898,-1.42007 -3.4158,-1.42007 z m -13.0039,3.09128 h 13.0039 c 0.4816,0 0.9188,0.19638 1.2361,0.5085 l 0.01,0.006 c 0.3121,0.31627 0.5105,0.75448 0.5105,1.23507 v 0.002 c 0,0.47852 -0.1984,0.91777 -0.5157,1.23506 v 0.003 c -0.3173,0.31316 -0.7566,0.5116 -1.2382,0.5116 h -11.2551 c -0.4785,0 -0.9178,-0.19844 -1.233,-0.5147 -0.3173,-0.31729 -0.5158,-0.75654 -0.5158,-1.23507 v -1.75183"
         id="path163-4"
         style="fill:#808080;stroke-width:0.264583" /><path
         fill-rule="nonzero"
         fill="#6e461e"
         fill-opacity="1"
         d="m 2293.3875,287.52159 -17.4439,11.18174 1.6671,2.59726 17.4439,-11.18278 -1.6671,-2.59622"
         id="path164-9"
         style="fill:#808080;stroke-width:0.264583" /><path
         fill-rule="nonzero"
         fill="#6e461e"
         fill-opacity="1"
         d="m 2369.8335,246.8078 c -2.9394,1.78697 -6.5484,3.92534 -10.3952,6.1991 -18.6263,11.01845 -42.7881,25.31525 -55.515,39.34334 0.1984,-4.13309 -0.2615,-8.04706 -1.0821,-11.68508 -1.1452,-5.08393 -2.9921,-9.60665 -4.7201,-13.4276 l -2.8154,1.2671 c 1.6702,3.68246 3.4427,8.02638 4.5269,12.83849 1.0583,4.69533 1.4738,9.87124 0.5219,15.36341 -2.6727,3.66386 -4.44,7.28327 -4.9774,10.79417 l 3.054,0.45785 c 2.5818,-16.80207 37.6422,-37.54603 62.5792,-52.29655 3.6349,-2.14974 7.0641,-4.17958 10.419,-6.21977 l -1.5958,-2.63446"
         id="path165-0"
         style="fill:#808080;stroke-width:0.264583" /><path
         d="m 2371.4293,276.07165 v -3.72846 l -72.0913,48.77118 -10.8654,7.35254 1.728,2.559 10.8655,-7.35149 z"
         style="fill:#808080;stroke-width:0.264583"
         id="path98-0-9" /><path
         d="m 2371.4293,289.48684 v -3.72844 l -52.7534,35.68876 -10.8655,7.35255 1.7281,2.55899 10.8654,-7.35148 z"
         style="fill:#808080;stroke-width:0.264583"
         id="path96-0-6" /><path
         d="m 2371.4293,302.92014 v -3.72896 l -30.6323,20.72328 -10.8655,7.35251 1.7281,2.55903 10.8655,-7.35149 z"
         style="fill:#808080;stroke-width:0.264583"
         id="path94-4-2" /><path
         d="m 2371.4293,317.14615 v -3.72899 l -6.888,4.65969 -10.8655,7.35251 1.7281,2.55903 10.8654,-7.35152 z"
         style="fill:#808080;stroke-width:0.264583"
         id="path92-6-1" /><path
         fill-rule="nonzero"
         fill="#6e461e"
         fill-opacity="1"
         d="m 2260.1178,295.3983 v -86.79986 h -3.0912 v 86.79986 h 3.0912"
         id="path188-6-9"
         style="fill:#828282;fill-opacity:1;stroke-width:0.924999;stroke-dasharray:none" /><path
         fill-rule="nonzero"
         fill="#6e461e"
         fill-opacity="1"
         d="m 2260.2078,245.51195 c 10e-4,-0.0651 0.835,-23.82801 -20.3926,-23.82801 v 3.09129 c 18.034,0 17.3137,20.60856 17.3137,20.6654 l 3.0789,0.0713"
         id="path189-6-0"
         style="fill:#828282;fill-opacity:1;stroke-width:0.924999;stroke-dasharray:none" /><path
         fill-rule="nonzero"
         fill="#6e461e"
         fill-opacity="1"
         d="m 2260.1116,293.57413 c 0,-0.0434 -0.5374,-15.42542 12.8778,-15.42542 v -3.09232 c -16.6088,0 -15.9587,18.54875 -15.9566,18.60042 l 3.0788,-0.0827"
         id="path190-4-9"
         style="fill:#828282;fill-opacity:1;stroke-width:0.924999;stroke-dasharray:none" /><path
         fill-rule="nonzero"
         fill="#6e461e"
         fill-opacity="1"
         d="m 2276.8972,237.92068 c -6.1919,-0.0848 -9.4258,-0.0527 -11.9735,1.58027 -2.5486,1.63297 -3.9356,4.56406 -6.4347,10.265 l -0.9291,2.1208 2.3233,0.0341 c 6.1919,0.0878 9.4248,0.0558 11.9735,-1.57819 2.5476,-1.63298 3.9356,-4.56614 6.4347,-10.26708 l 0.9322,-2.1239 z m -10.3074,4.17649 c 1.5389,-0.98599 3.854,-1.14618 7.9334,-1.12345 -1.6806,3.74241 -2.7947,5.7857 -4.3326,6.77168 -1.5368,0.98496 -3.854,1.14619 -7.9334,1.12241 1.6806,-3.74034 2.7947,-5.78465 4.3326,-6.77064"
         id="path191-6-8"
         style="fill:#828282;fill-opacity:1;stroke-width:0.924999;stroke-dasharray:none" /><path
         fill-rule="nonzero"
         fill="#6e461e"
         fill-opacity="1"
         d="m 2242.9344,259.4129 c 4.0814,-0.0217 6.3986,0.13851 7.9354,1.12242 1.5379,0.98703 2.6521,3.0303 4.3326,6.77063 -4.0794,0.0238 -6.3965,-0.13745 -7.9334,-1.12238 -1.5379,-0.986 -2.6541,-3.02827 -4.3346,-6.77067 z m 9.6015,-1.47484 c -2.5477,-1.63195 -5.7816,-1.66399 -11.9735,-1.57924 l -2.3233,0.031 0.9291,2.12391 c 2.4981,5.70096 3.8871,8.63513 6.4348,10.26708 2.5476,1.63193 5.7815,1.66603 11.9734,1.57819 l 2.3254,-0.0341 -0.9312,-2.12079 c -2.4991,-5.70095 -3.8871,-8.63306 -6.4347,-10.26605"
         id="path192-2-8"
         style="fill:#828282;fill-opacity:1;stroke-width:0.924999;stroke-dasharray:none" /><path
         fill-rule="nonzero"
         fill="#6e461e"
         fill-opacity="1"
         d="m 2264.3361,178.27264 h -1.4045 c -0.7752,0 -1.479,-0.3142 -1.9823,-0.81958 l -0.01,-0.005 c -0.5054,-0.50435 -0.8175,-1.20819 -0.8175,-1.98334 h -0.01 c 0,-0.76997 0.3204,-1.47691 0.8278,-1.98335 l 0.01,-0.006 c 0.5054,-0.50541 1.2092,-0.8196 1.9843,-0.8196 h 8.3292 v 8.32922 c 0,0.77514 -0.3141,1.47899 -0.8196,1.98231 l -0.01,0.006 c -0.5054,0.50541 -1.2093,0.8196 -1.9844,0.8196 -0.7762,0 -1.48,-0.31419 -1.9823,-0.8196 l -0.01,-0.006 c -0.5054,-0.50332 -0.8175,-1.20717 -0.8175,-1.98231 v -2.71198 z m -1.4045,2.61895 h 0.095 v 0.093 c 0,1.48931 0.6108,2.8453 1.5926,3.8282 l 0.01,0.006 c 0.985,0.98185 2.3389,1.59266 3.8293,1.59266 1.4893,0 2.8443,-0.60978 3.8282,-1.59266 l 0.01,-0.006 c 0.9808,-0.9829 1.5895,-2.33889 1.5895,-3.8282 v -10.94817 h -10.9461 c -1.4893,0 -2.8463,0.61081 -3.8282,1.59266 l -0.01,0.006 c -0.9787,0.97978 -1.5844,2.3368 -1.5875,3.82921 h -0.01 c 0,1.48931 0.6118,2.8453 1.5926,3.8282 l 0.01,0.006 c 0.985,0.98187 2.34,1.59266 3.8293,1.59266"
         id="path69-3"
         style="fill:#808080;fill-opacity:1;stroke-width:0.264583" /><path
         fill-rule="nonzero"
         fill="#6e461e"
         fill-opacity="1"
         d="m 2265.6435,191.1163 v -1.40147 c 0,-0.77102 0.3173,-1.47484 0.8258,-1.98334 v -0.006 c 0.5023,-0.5054 1.2062,-0.8196 1.9813,-0.8196 0.772,0 1.4759,0.31729 1.9844,0.8258 0.5074,0.5085 0.8258,1.21232 0.8258,1.98334 v 8.32921 h -8.3292 c -0.7752,0 -1.479,-0.31419 -1.9823,-0.8196 l -0.01,-0.006 c -0.5054,-0.50438 -0.8175,-1.20716 -0.8175,-1.98334 0,-0.77206 0.3142,-1.47484 0.8247,-1.98335 v -0.006 c 0.5034,-0.50541 1.2072,-0.8196 1.9823,-0.8196 h 2.712 z m -2.62,-1.40147 v 0.093 h -0.092 c -1.4924,0 -2.8495,0.61185 -3.8313,1.59472 v -0.003 c -0.9808,0.98184 -1.5927,2.34198 -1.5927,3.83543 0,1.49034 0.6119,2.8453 1.5927,3.8292 l 0.01,0.006 c 0.985,0.98081 2.3399,1.59163 3.8292,1.59163 h 10.9482 v -10.94719 c 0,-1.49344 -0.6108,-2.85358 -1.5927,-3.83542 -0.9818,-0.98081 -2.342,-1.59163 -3.8364,-1.59163 -1.4893,0 -2.8474,0.61185 -3.8313,1.59472 v -0.003 c -0.9818,0.98184 -1.5937,2.34198 -1.5937,3.83542"
         id="path70-8"
         style="fill:#808080;fill-opacity:1;stroke-width:0.264583" /><path
         fill-rule="nonzero"
         fill="#6e461e"
         fill-opacity="1"
         d="m 2254.1073,189.81405 v -0.0992 c 0,-1.49344 -0.6088,-2.85358 -1.5896,-3.83542 -0.9818,-0.98081 -2.3451,-1.59163 -3.8364,-1.59163 -1.4924,0 -2.8495,0.61185 -3.8313,1.59472 v -0.003 c -0.9818,0.98184 -1.5927,2.34095 -1.5927,3.83646 v 10.93888 h 1.3095 l 9.6366,0.003 v 0.006 c 1.4924,0 2.8495,-0.61082 3.8313,-1.59266 l 0.01,-0.006 c 0.9767,-0.97875 1.5823,-2.33371 1.5854,-3.82921 h 0.01 c 0,-1.49241 -0.6108,-2.85255 -1.5905,-3.8344 l -0.01,0.003 c -0.9787,-0.98081 -2.3389,-1.58956 -3.8313,-1.5906 z m -2.6169,-0.0992 v 2.70682 h 1.3105 l 1.4015,-0.003 c 0.77,0 1.4769,0.31832 1.9844,0.82785 v 0.005 c 0.5085,0.50954 0.8257,1.21232 0.8257,1.98335 h 0.01 c 0,0.76893 -0.3173,1.47484 -0.8279,1.98644 -0.5105,0.50747 -1.2144,0.82269 -1.9895,0.82269 v 0.006 h -8.3272 v -8.33438 c 0,-0.77102 0.3153,-1.47587 0.8258,-1.98437 v -0.006 c 0.5034,-0.50541 1.2072,-0.8196 1.9823,-0.8196 0.7721,0 1.4738,0.31729 1.9844,0.82579 0.5075,0.5085 0.8248,1.21232 0.8248,1.98335"
         id="path71-0"
         style="fill:#808080;fill-opacity:1;stroke-width:0.264583" /><path
         fill-rule="nonzero"
         fill="#6e461e"
         fill-opacity="1"
         d="m 2254.1073,180.8854 h 0.093 c 1.4945,-0.003 2.8515,-0.61082 3.8334,-1.5906 v 0.003 c 0.9818,-0.98185 1.5926,-2.34199 1.5926,-3.83543 v -0.003 c 0,-1.49344 -0.6139,-2.85149 -1.5926,-3.83233 -0.9788,-0.97771 -2.3368,-1.58543 -3.8313,-1.5844 v -0.006 h -10.943 v 1.30948 9.63869 h -0.01 c 0,1.48931 0.6129,2.8453 1.5948,3.8282 l 0.01,0.006 c 0.985,0.98184 2.3389,1.59266 3.8293,1.59266 1.4944,0 2.8546,-0.61082 3.8364,-1.59266 0.9808,-0.98184 1.5896,-2.34199 1.5896,-3.83439 z m 0.093,-2.60657 h -1.3994 l -1.3105,-0.003 v 2.70888 c 0,0.77103 -0.3173,1.47381 -0.8248,1.98232 -0.5105,0.50953 -1.2143,0.82579 -1.9843,0.82579 -0.7752,0 -1.479,-0.3142 -1.9823,-0.8196 l -0.01,-0.006 c -0.5054,-0.50331 -0.8206,-1.20716 -0.8206,-1.98231 h -0.01 v -8.32921 h 8.3395 v -0.006 c 0.7617,0 1.4655,0.31626 1.9792,0.82992 0.5075,0.50747 0.8258,1.21026 0.8258,1.98025 v 0.003 c 0,0.77102 -0.3183,1.47484 -0.8258,1.98334 v 0.006 c -0.5085,0.5085 -1.2144,0.82682 -1.9844,0.82682"
         id="path72-9"
         style="fill:#808080;fill-opacity:1;stroke-width:0.264583" /><path
         fill-rule="nonzero"
         fill="#6e461e"
         fill-opacity="1"
         d="m 2248.5696,199.61192 c 0.7886,4.62605 3.5192,5.60377 5.9511,6.47504 1.3229,0.47027 2.5001,0.89297 2.5001,2.51148 h 3.0923 c 0,-1.61851 1.1783,-2.04121 2.4981,-2.51148 2.4339,-0.87127 5.1645,-1.84899 5.9531,-6.47504 l -3.0427,-0.51885 c -0.4837,2.84427 -2.3151,3.49954 -3.9471,4.0845 -1.1224,0.39997 -2.191,0.78134 -3.0086,1.45831 -0.8175,-0.67697 -1.8841,-1.05834 -3.0055,-1.45831 -1.6329,-0.58496 -3.4633,-1.24023 -3.948,-4.0845 l -3.0428,0.51885"
         id="path73-7"
         style="fill:#808080;fill-opacity:1;stroke-width:0.264583" /><path
         fill-rule="nonzero"
         fill="#6e461e"
         fill-opacity="1"
         d="m 2272.8297,195.34654 c 4.625,-0.78859 5.6038,-3.51917 6.474,-5.95209 0.4713,-1.32085 0.894,-2.49907 2.5115,-2.49907 v -3.09232 c -1.6175,0 -2.0402,-1.17721 -2.5115,-2.49909 -0.8702,-2.43293 -1.849,-5.16247 -6.474,-5.95104 l -0.5189,3.04165 c 2.8443,0.48475 3.4975,2.31616 4.0825,3.94809 0.402,1.12241 0.7834,2.18903 1.4603,3.00654 -0.6769,0.81751 -1.0583,1.88412 -1.4603,3.00654 -0.585,1.63298 -1.2382,3.46437 -4.0825,3.94808 l 0.5189,3.04271"
         id="path74-9"
         style="fill:#808080;fill-opacity:1;stroke-width:0.264583" /><path
         fill-rule="nonzero"
         fill="#6e461e"
         fill-opacity="1"
         d="m 2268.5643,171.08653 c -0.7886,-4.62505 -3.5192,-5.6038 -5.9531,-6.47404 -1.3198,-0.4713 -2.4981,-0.894 -2.4981,-2.51148 h -3.0923 c 0,1.61748 -1.1772,2.04018 -2.5001,2.51148 -2.4319,0.87024 -5.1625,1.84899 -5.9511,6.47404 l 3.0428,0.51882 c 0.4847,-2.84427 2.3151,-3.49954 3.948,-4.08348 1.1214,-0.401 2.188,-0.78237 3.0055,-1.45933 0.8176,0.67696 1.8862,1.05833 3.0086,1.45933 1.632,0.58394 3.4634,1.23921 3.9471,4.08348 l 3.0427,-0.51882"
         id="path75-9"
         style="fill:#808080;fill-opacity:1;stroke-width:0.264583" /><path
         fill-rule="nonzero"
         fill="#6e461e"
         fill-opacity="1"
         d="m 2244.3043,175.35293 c -4.6271,0.78857 -5.6038,3.51811 -6.474,5.95104 -0.4713,1.32188 -0.894,2.49909 -2.5136,2.49909 v 3.09232 c 1.6196,0 2.0423,1.17822 2.5136,2.49907 0.8702,2.43292 1.8469,5.1635 6.474,5.95209 l 0.5188,-3.04271 c -2.8443,-0.48371 -3.5006,-2.3151 -4.0845,-3.94808 -0.4,-1.12242 -0.7813,-2.18903 -1.4583,-3.00654 0.677,-0.81751 1.0583,-1.88413 1.4583,-3.00654 0.5839,-1.63193 1.2402,-3.46334 4.0845,-3.94809 l -0.5188,-3.04165"
         id="path76-3"
         style="fill:#808080;fill-opacity:1;stroke-width:0.264583" /></g></g></svg>
