<?xml version="1.0" encoding="UTF-8" standalone="no"?>
<!-- Created with Inkscape (http://www.inkscape.org/) -->

<svg
   width="710.43616mm"
   height="319.75476mm"
   viewBox="0 0 710.43619 319.75476"
   version="1.1"
   id="svg1"
   xml:space="preserve"
   xmlns="http://www.w3.org/2000/svg"
   xmlns:svg="http://www.w3.org/2000/svg"><defs
     id="defs1" /><g
     id="layer2"
     transform="translate(-349.86656,-6.3606244)"><path
       id="path149-62-7-5"
       style="fill:#f7717d;fill-opacity:1;stroke:none;stroke-width:0.207959;stroke-linecap:butt;stroke-linejoin:miter;stroke-miterlimit:10;stroke-dasharray:none;stroke-opacity:1"
       d="m 375.00012,113.31017 2.01055,-0.0214 3.19451,-0.0719 c 0.76523,-0.0172 1.43494,-0.4178 2.35746,0.049 0.46186,0.23371 1.00543,0.96739 1.59789,1.45975 0.35819,0.29767 0.86051,0.52221 0.8837,0.75272 0.34081,3.38747 0.0515,4.14991 0.0772,6.22485 0.009,0.71962 -0.65303,0.66679 -1.09131,1.13689 -0.40235,0.43155 -0.7087,1.4985 -1.36915,1.48231 l -7.67763,-0.18825 c -0.44281,-0.0109 -0.88733,-0.68576 -1.40691,-1.18388 -0.37242,-0.35703 -0.90477,-0.38606 -0.94104,-1.11231 -0.0708,-1.41788 0.15427,-2.5575 0.0693,-3.17151 l -0.24218,-1.7507 c -0.10668,-0.77121 0.28241,-1.0889 0.81115,-1.85613 0.40867,-0.59301 1.12468,-1.74303 1.7264,-1.74945 z" /><path
       id="path149-62-7-5-1"
       style="fill:#f7717d;fill-opacity:1;stroke:none;stroke-width:0.207959;stroke-linecap:butt;stroke-linejoin:miter;stroke-miterlimit:10;stroke-dasharray:none;stroke-opacity:1"
       d="m 369.26779,148.70084 2.01055,-0.0214 3.19451,-0.0719 c 0.76523,-0.0172 1.43494,-0.4178 2.35746,0.049 0.46186,0.23371 1.00543,0.96739 1.59789,1.45975 0.35819,0.29767 0.86051,0.52221 0.8837,0.75272 0.34081,3.38747 0.0515,4.14991 0.0772,6.22485 0.009,0.71962 -0.65303,0.66679 -1.09131,1.13689 -0.40235,0.43155 -0.7087,1.4985 -1.36915,1.48231 l -7.67763,-0.18825 c -0.44281,-0.0109 -0.88733,-0.68576 -1.40691,-1.18388 -0.37242,-0.35703 -0.90477,-0.38606 -0.94104,-1.11231 -0.0708,-1.41788 0.15427,-2.5575 0.0693,-3.17151 l -0.24218,-1.7507 c -0.10668,-0.77121 0.28241,-1.0889 0.81115,-1.85613 0.40867,-0.59301 1.12468,-1.74303 1.7264,-1.74945 z" /><g
       id="g43"
       style="stroke:none"
       transform="matrix(0.26458333,0,0,0.26458333,1903.1772,-1.7859988)"><circle
         style="fill:#ffffff;fill-opacity:1;stroke:none;stroke-width:0.429407;stroke-linejoin:bevel;stroke-dasharray:none"
         id="path3-3-54-03"
         cx="-5805.9238"
         cy="1174.4557"
         r="64.856613" /><path
         id="path26-2-70"
         style="fill:#8981c5;fill-opacity:1;stroke:none;stroke-width:0.313662;stroke-linecap:butt;stroke-linejoin:miter;stroke-miterlimit:10;stroke-dasharray:none;stroke-opacity:1"
         d="m -5768.2639,1169.2934 -4.7479,16.9018 c 4.947,-3.4177 6.4934,-11.9127 10.2685,-16.9018 z m -27.3624,31.3805 -7.7033,15.9524 c 5.8643,-6.0314 11.7287,-14.4984 17.593,-17.5205 l 9.1966,-20.137 z m 39.0892,-34.7816 c -6.3763,-4.3995 -10.7219,-11.397 -3.9071,0 z m -6.2062,0 c -1.6058,-3.5272 -1.9442,-7.3666 -6.8993,-10.0685 l 1.8389,10.0685 z m -10.348,-12.0297 c -0.5928,-0.9516 0.8824,-2.6068 -2.9024,-4.3611 -0.1436,-1.9437 -2.4024,-2.0665 -3.7659,-2.9601 -1.2495,-0.1101 -3.2037,-0.7557 -5.972,0.922 -1.2235,0.7413 -1.8589,-0.6972 -3.2264,-0.922 l -1.6098,2.3543 19.0843,14.9051 z m -18.6261,-8.1074 c -1.0324,0.6927 -3.798,0.4915 -7.1265,0 l 5.2876,3.1405 z m 18.6261,20.1371 -17.4765,-13.0743 4.8313,13.0743 z m -13.1074,3.4011 -9.4276,24.5827 24.1428,-24.5827 z m -12.4161,26.1508 9.6568,-26.1508 h -14.3715 z m 5.0586,-42.6262 -9.7733,13.0743 h 14.3715 z m -12.8763,19.0902 -6.2082,29.0284 6.2082,18.0432 6.2079,-18.0432 z m -43.6875,-2.6148 17.2454,22.4891 -11.7267,-22.4891 z m 13.7968,9.6754 9.1965,20.137 c 4.7249,8.517 11.4745,12.2748 17.5911,17.5205 l -7.7033,-15.9524 z m -20.0048,-13.0765 h 3.9089 z m 11.2665,0 1.839,-10.0685 -6.8975,10.0685 z m 21.1525,-19.3509 c -1.3042,-1.0771 -5.0859,-0.6391 -9.1965,0 -4.4937,2.0543 -6.765,4.4865 -6.6684,7.3212 l -1.6078,9.9382 19.0843,-14.9051 z m 9.8897,-0.7862 c -4.0768,0.9466 -4.7536,0.038 -7.1305,0 l 1.8409,3.1405 z m -25.7546,20.1371 h 12.6472 l 4.8294,-13.0743 z m 13.1075,3.4011 h -14.7153 l 24.1428,24.5827 z m 12.416,26.1508 4.7148,-26.1508 h -14.3734 z m -5.0585,-42.6262 -4.6002,13.0743 h 14.3735 z m 12.8764,13.0743 10.8062,-15.6892 -7.7033,-4.4479 c -1.8771,-0.6621 -4.0005,-0.473 -6.206,0 l -7.7033,4.4479 z m -28.7322,-23.4533 13.756,-2.8061 c 4.1801,-0.8527 17.2358,2.0014 40.2061,0.4548 6.7368,-0.4536 12.8748,8.3997 13.4571,8.9279 5.9828,5.4275 9.2098,7.2834 15.4693,12.704 8.5832,7.433 -1.5953,14.5386 -10.0514,22.3464 l -18.6898,17.2569 c -8.3879,12.6259 -17.4503,18.4342 -26.0746,26.2247 -9.6429,-6.8181 -18.5659,-20.0837 -27.7245,-29.6243 -7.9556,-8.2872 -9.7532,-10.3821 -18.2047,-18.4086 l -9.6921,-9.2048 c -1.1892,-1.1294 23.3466,-27.0137 27.5486,-27.8709 z" /></g><g
       id="g24"
       transform="matrix(0.26458333,0,0,0.26458333,1902.2876,0)"><path
         id="path149-62-9-4-7-3-8"
         style="fill:#000000;fill-opacity:1;stroke:#000000;stroke-width:0.717443;stroke-linecap:butt;stroke-linejoin:miter;stroke-miterlimit:10;stroke-dasharray:none;stroke-opacity:1"
         d="m -3617.428,84.82666 21.6963,-0.19254 8.2923,5.05962 0.2276,20.58876 -7.2664,5.52519 -23.554,-0.50728 -7.8637,-3.78732 -0.01,-21.28213 c -0.072,-0.0356 8.4726,-5.4043 8.4726,-5.4043 z" /><circle
         style="fill:#000000;fill-opacity:1;stroke:#000000;stroke-width:0.799259;stroke-linejoin:bevel;stroke-dasharray:none;stroke-opacity:1"
         id="path3-3-2-1-8-8"
         cx="-3606.5566"
         cy="100.22089"
         r="60.416645" /><rect
         style="font-variation-settings:normal;vector-effect:none;fill:#000000;fill-opacity:1;stroke:#000000;stroke-width:0;stroke-linecap:butt;stroke-linejoin:miter;stroke-miterlimit:10;stroke-dasharray:none;stroke-dashoffset:0;stroke-opacity:1;-inkscape-stroke:none;stop-color:#000000"
         id="rect8-1"
         width="68.621338"
         height="51.692223"
         x="-3640.8696"
         y="74.374771"
         ry="13.584625" /><rect
         style="font-variation-settings:normal;vector-effect:none;fill:#000000;fill-opacity:1;stroke:#000000;stroke-width:0;stroke-linecap:butt;stroke-linejoin:miter;stroke-miterlimit:10;stroke-dasharray:none;stroke-dashoffset:0;stroke-opacity:1;-inkscape-stroke:none;stop-color:#000000"
         id="rect8-3-0"
         width="41.127705"
         height="30.981361"
         x="-3627.1228"
         y="84.730194" /><path
         id="path149-62-9-4-7-3-8-10"
         style="fill:#f7717d;fill-opacity:1;stroke:#000000;stroke-width:0.717443;stroke-linecap:butt;stroke-linejoin:miter;stroke-miterlimit:10;stroke-dasharray:none;stroke-opacity:1"
         d="m -3621.5742,82.29685 21.6964,-0.19254 8.2923,5.05962 0.2276,20.58876 -7.2664,5.52519 -23.554,-0.50728 -7.8637,-3.78732 -0.01,-21.28213 c -0.072,-0.0356 8.4726,-5.4043 8.4726,-5.4043 z" /><circle
         style="fill:#f7717d;fill-opacity:1;stroke:#000000;stroke-width:0.799259;stroke-linejoin:bevel;stroke-dasharray:none;stroke-opacity:1"
         id="path3-3-2-1-8-8-5"
         cx="-3610.7026"
         cy="97.691078"
         r="60.416645" /><rect
         style="font-variation-settings:normal;vector-effect:none;fill:#ffffff;fill-opacity:1;stroke:#000000;stroke-width:0;stroke-linecap:butt;stroke-linejoin:miter;stroke-miterlimit:10;stroke-dasharray:none;stroke-dashoffset:0;stroke-opacity:1;-inkscape-stroke:none;stop-color:#000000"
         id="rect8-1-0"
         width="68.621338"
         height="51.692223"
         x="-3645.0156"
         y="71.844963"
         ry="13.584625" /><rect
         style="font-variation-settings:normal;vector-effect:none;fill:#f7717d;fill-opacity:1;stroke:#000000;stroke-width:0;stroke-linecap:butt;stroke-linejoin:miter;stroke-miterlimit:10;stroke-dasharray:none;stroke-dashoffset:0;stroke-opacity:1;-inkscape-stroke:none;stop-color:#000000"
         id="rect8-3-0-6"
         width="41.127705"
         height="30.981361"
         x="-3631.269"
         y="82.200386" /></g><g
       id="g25"><circle
         style="fill:#000000;fill-opacity:1;stroke:#000000;stroke-width:0.784893;stroke-linejoin:bevel;stroke-dasharray:none;stroke-opacity:1"
         id="path3-3-54-5-5-6-5-4"
         cx="-3741.9534"
         cy="88.021851"
         r="59.330544"
         transform="matrix(0.26458333,0,0,0.26458333,1902.2876,0)" /><path
         id="path26-2-9-7-6-9-6"
         style="fill:#000000;stroke:#000000;stroke-width:0;stroke-linecap:butt;stroke-linejoin:miter;stroke-miterlimit:10;stroke-dasharray:none;stroke-opacity:1"
         d="m -3760.0902,65.702215 35.8903,-0.0903 15.0237,15.07821 -32.7225,36.833295 c 0.1911,-0.21511 -32.8319,-36.390985 -32.8319,-36.390985 z"
         transform="matrix(0.26458333,0,0,0.26458333,1902.2876,0)" /><path
         id="path26-2-9-7-6-0-7-9"
         style="fill:#000000;fill-opacity:1;stroke:#000000;stroke-width:0;stroke-linecap:butt;stroke-linejoin:miter;stroke-miterlimit:10;stroke-dasharray:none;stroke-opacity:1"
         d="m -3752.1988,74.410845 20.2738,-0.051 8.4866,8.51741 -18.4843,20.806445 c 0.108,-0.12151 -18.5461,-20.556595 -18.5461,-20.556595 z"
         transform="matrix(0.26458333,0,0,0.26458333,1902.2876,0)" /><circle
         style="fill:#8981c5;fill-opacity:1;stroke:#000000;stroke-width:0.20767;stroke-linejoin:bevel;stroke-dasharray:none;stroke-opacity:1"
         id="path3-3-54-5-5-6-5"
         cx="911.10638"
         cy="22.162333"
         r="15.697873" /><path
         id="path26-2-9-7-6-9"
         style="fill:#ffffff;stroke:#000000;stroke-width:0;stroke-linecap:butt;stroke-linejoin:miter;stroke-miterlimit:10;stroke-dasharray:none;stroke-opacity:1"
         d="m 906.30771,16.256928 9.49597,-0.02389 3.97502,3.989443 -8.65783,9.745474 c 0.0506,-0.05691 -8.68677,-9.628447 -8.68677,-9.628447 z" /><path
         id="path26-2-9-7-6-0-7"
         style="fill:#8981c5;fill-opacity:1;stroke:#000000;stroke-width:0;stroke-linecap:butt;stroke-linejoin:miter;stroke-miterlimit:10;stroke-dasharray:none;stroke-opacity:1"
         d="m 908.39564,18.561087 5.36411,-0.01349 2.24541,2.253565 -4.89064,5.505037 c 0.0286,-0.03215 -4.90698,-5.438931 -4.90698,-5.438931 z" /></g><g
       id="g18"
       transform="matrix(0.26458333,0,0,0.26458333,1902.2876,0.95031078)"><g
         id="g21"><circle
           style="fill:#000000;fill-opacity:1;stroke:none;stroke-width:0.617289;stroke-linejoin:bevel;stroke-dasharray:none"
           id="path3-3-9-1-4-3-0-1"
           cx="3228.9663"
           cy="-93.358025"
           r="46.661247"
           transform="scale(-1)" /><rect
           style="font-variation-settings:normal;vector-effect:none;fill:#000000;fill-opacity:0;stroke:none;stroke-width:0;stroke-linecap:butt;stroke-linejoin:miter;stroke-miterlimit:10;stroke-dasharray:none;stroke-dashoffset:0;stroke-opacity:1;-inkscape-stroke:none"
           id="rect3-7"
           width="23.3379"
           height="20.637274"
           x="-3273.1189"
           y="107.39083"
           ry="2.6904278" /><rect
           style="font-variation-settings:normal;vector-effect:none;fill:#000000;fill-opacity:1;stroke:none;stroke-width:0;stroke-linecap:butt;stroke-linejoin:miter;stroke-miterlimit:10;stroke-dasharray:none;stroke-dashoffset:0;stroke-opacity:1;-inkscape-stroke:none"
           id="rect4-5"
           width="45.354328"
           height="45.354328"
           x="-2239.8872"
           y="2326.561"
           transform="rotate(45)" /><rect
           style="font-variation-settings:normal;vector-effect:none;fill:#000000;fill-opacity:1;stroke:none;stroke-width:0;stroke-linecap:butt;stroke-linejoin:miter;stroke-miterlimit:10;stroke-dasharray:none;stroke-dashoffset:0;stroke-opacity:1;-inkscape-stroke:none"
           id="rect4-2-9"
           width="25.908871"
           height="25.908871"
           x="-2230.1643"
           y="2336.2837"
           transform="rotate(45)" /><rect
           style="font-variation-settings:normal;vector-effect:none;fill:#ffffff;fill-opacity:0;stroke:#000000;stroke-width:0;stroke-linecap:butt;stroke-linejoin:miter;stroke-miterlimit:10;stroke-dasharray:none;stroke-dashoffset:0;stroke-opacity:1;-inkscape-stroke:none"
           id="rect3-7-2"
           width="23.3379"
           height="20.637274"
           x="-3279.9937"
           y="100.51604"
           ry="2.6904278" /><circle
           style="fill:#a5c882;fill-opacity:1;stroke:#000000;stroke-width:0.617289;stroke-linejoin:bevel;stroke-dasharray:none;stroke-opacity:1"
           id="path3-3-9-1-4-3-0-1-6"
           cx="3232.5657"
           cy="-89.766312"
           r="46.661247"
           transform="scale(-1)" /><rect
           style="font-variation-settings:normal;vector-effect:none;fill:#ffffff;fill-opacity:1;stroke:#000000;stroke-width:0;stroke-linecap:butt;stroke-linejoin:miter;stroke-miterlimit:10;stroke-dasharray:none;stroke-dashoffset:0;stroke-opacity:1;-inkscape-stroke:none"
           id="rect4-5-8"
           width="45.354328"
           height="45.354328"
           x="-2244.9722"
           y="2326.5664"
           transform="rotate(45)" /><rect
           style="font-variation-settings:normal;vector-effect:none;fill:#a5c882;fill-opacity:1;stroke:#000000;stroke-width:0;stroke-linecap:butt;stroke-linejoin:miter;stroke-miterlimit:10;stroke-dasharray:none;stroke-dashoffset:0;stroke-opacity:1;-inkscape-stroke:none"
           id="rect4-2-9-4"
           width="25.908871"
           height="25.908871"
           x="-2235.2493"
           y="2336.2891"
           transform="rotate(45)" /></g></g><g
       id="g23"><circle
         style="fill:#000000;fill-opacity:1;stroke:#000000;stroke-width:0.719657;stroke-linejoin:bevel;stroke-dasharray:none;stroke-opacity:1"
         id="path3-3-6-0-4-2-4-6"
         cx="-3478.1138"
         cy="94.203522"
         r="54.399277"
         transform="matrix(0.26458333,0,0,0.26458333,1902.2876,0)" /><path
         id="path2-4-8"
         style="fill:#000000;stroke:#000000;stroke-width:0.86757;stroke-linejoin:bevel;stroke-opacity:1"
         d="m -3447.0033,94.20353 a 31.110313,29.673891 0 0 1 -31.1104,29.67389 31.110313,29.673891 0 0 1 -31.1103,-29.67389 31.110313,29.673891 0 0 1 31.1103,-29.67389 31.110313,29.673891 0 0 1 31.1104,29.67389 z"
         transform="matrix(0.26458333,0,0,0.26458333,1902.2876,0)" /><path
         id="path2-5-4-0"
         style="fill:#000000;fill-opacity:1;stroke:#000000;stroke-width:0.554197;stroke-linejoin:bevel;stroke-opacity:1"
         d="m -3458.2406,94.20353 a 19.873184,18.955602 0 0 1 -19.8732,18.9556 19.873184,18.955602 0 0 1 -19.8731,-18.9556 19.873184,18.955602 0 0 1 19.8731,-18.95561 19.873184,18.955602 0 0 1 19.8732,18.95561 z"
         transform="matrix(0.26458333,0,0,0.26458333,1902.2876,0)" /><circle
         style="fill:#05b2dc;fill-opacity:1;stroke:#000000;stroke-width:0.190409;stroke-linejoin:bevel;stroke-dasharray:none;stroke-opacity:1"
         id="path3-3-6-0-4-2-4"
         cx="981.3089"
         cy="24.078634"
         r="14.393142" /><path
         id="path2-4"
         style="fill:#ffffff;stroke:none;stroke-width:0.229545;stroke-linejoin:bevel"
         d="m 989.54019,24.078636 a 8.2312702,7.8512169 0 0 1 -8.23129,7.851217 8.2312702,7.8512169 0 0 1 -8.23127,-7.851217 8.2312702,7.8512169 0 0 1 8.23127,-7.851216 8.2312702,7.8512169 0 0 1 8.23129,7.851216 z" /><path
         id="path2-5-4"
         style="fill:#05b2dc;fill-opacity:1;stroke:none;stroke-width:0.146631;stroke-linejoin:bevel"
         d="m 986.56699,24.078636 a 5.2581132,5.0153363 0 0 1 -5.25812,5.015336 5.2581132,5.0153363 0 0 1 -5.25809,-5.015336 5.2581132,5.0153363 0 0 1 5.25809,-5.015338 5.2581132,5.0153363 0 0 1 5.25812,5.015338 z" /></g><g
       id="g22"><circle
         style="fill:#000000;fill-opacity:1;stroke:none;stroke-width:0.183748;stroke-linejoin:bevel;stroke-dasharray:none"
         id="path3-3-5-5-8-9-4-7-5"
         cx="1013.9249"
         cy="24.924681"
         r="13.889629" /><path
         id="path208-4-9-9-2-3-85-4"
         d="m 1005.7865,27.901045 2.1615,2.264616 z m 12.4673,-8.489093 c -0.995,-1.535268 -0.8422,-1.51439 -2.0767,-2.341271 l -2.5198,-0.261834 c -2.3565,0.703058 -4.3543,0.46922 -7.0693,2.109171 -0.2259,0.588446 -0.1257,1.377177 -0.2044,1.752118 -0.2133,1.016037 -0.2541,1.108305 -0.3764,1.992418 -0.207,0.09122 0.1801,0.533414 -0.3509,0.893916 -0.2838,0.19272 -0.8258,0.0636 -1.0944,0.35423 l -0.3888,0.54034 -0.4958,0.893815 c 0.3371,2.529057 0.9487,1.586257 1.4233,2.376128 1.3384,0.996413 2.1974,1.904828 2.83,2.838646 0.8266,0.157059 1.6107,0.363556 2.48,0.470609 l 0.6761,-0.02244 1.9614,-0.08065 1.8648,0.272722 1.4164,-0.300133 c 0.5966,-0.582274 0.6166,-0.424243 1.4038,-0.907261 0.4325,-0.42549 0.3757,-1.602119 1.1529,-2.443671 l 1.789,-1.149958 c 0.1356,-0.118277 1.0626,-1.6304 1.4372,-2.495722 0.4415,-1.01967 0.3536,-1.46907 0.7613,-2.45804 -0.7577,-0.460052 -1.5743,-0.243644 -2.2729,-1.384197 z m -10.2216,9.882325 2.1614,2.264617 z m 12.4673,-8.489092 c -0.995,-1.535272 -0.8422,-1.514393 -2.0768,-2.341277 l -2.5198,-0.261829 c -2.3564,0.703059 -4.3543,0.469217 -7.0693,2.109171 -0.2258,0.588447 -0.1256,1.377172 -0.2043,1.752116 -0.2134,1.016039 -0.2541,1.108305 -0.3765,1.992423 -0.207,0.09121 0.1801,0.533406 -0.3508,0.893916 -0.2839,0.192718 -0.8258,0.0636 -1.0944,0.354224 l -0.3888,0.540343 -0.4959,0.89381 c 0.3371,2.529057 0.9488,1.586262 1.4234,2.376133 1.3384,0.996413 2.1974,1.904826 2.83,2.838643 0.8265,0.15706 1.6106,0.363559 2.48,0.470612 l 0.6761,-0.02244 1.9613,-0.08064 1.8649,0.272725 1.4164,-0.300138 c 0.5965,-0.582271 0.6165,-0.424244 1.4037,-0.907262 0.4326,-0.425489 0.3757,-1.602113 1.153,-2.443667 l 1.7889,-1.149956 c 0.1356,-0.118277 1.0626,-1.630403 1.4373,-2.495722 0.4414,-1.01967 0.3535,-1.469073 0.7612,-2.45804 -0.7577,-0.460053 -1.5742,-0.243645 -2.2729,-1.3842 z"
         style="fill:#000000;fill-opacity:1;stroke:none;stroke-width:0;stroke-linecap:butt;stroke-linejoin:miter;stroke-miterlimit:10;stroke-dasharray:none;stroke-opacity:1" /><path
         id="path208-4-9-9-2-3-8-7-8"
         d="m 1009.1687,26.64425 1.3125,1.375207 z m 7.5708,-5.15508 c -0.6042,-0.932307 -0.5114,-0.919628 -1.2611,-1.421763 l -1.5302,-0.158996 c -1.4309,0.426935 -2.6441,0.284933 -4.2928,1.280814 -0.1372,0.357335 -0.076,0.8363 -0.1242,1.063987 -0.1295,0.617001 -0.1542,0.673026 -0.2286,1.209916 -0.1256,0.05539 0.1094,0.323919 -0.213,0.542838 -0.1723,0.117033 -0.5015,0.03862 -0.6646,0.215109 l -0.2361,0.328128 -0.3011,0.542777 c 0.2047,1.535792 0.5761,0.963266 0.8644,1.442926 0.8127,0.605081 1.3343,1.156724 1.7185,1.723792 0.5019,0.09538 0.9781,0.220771 1.506,0.285785 l 0.4106,-0.01363 1.191,-0.04897 1.1325,0.165614 0.8601,-0.182261 c 0.3623,-0.353592 0.3744,-0.257625 0.8524,-0.550942 0.2627,-0.258387 0.2281,-0.972902 0.7002,-1.483942 l 1.0863,-0.698323 c 0.082,-0.07182 0.6453,-0.990076 0.8728,-1.515549 0.2681,-0.619207 0.2147,-0.892109 0.4623,-1.492668 -0.4602,-0.279376 -0.956,-0.147958 -1.3803,-0.840571 z m -6.2071,6.001131 1.3125,1.375208 z m 7.5708,-5.155081 c -0.6042,-0.932307 -0.5114,-0.919628 -1.2611,-1.421762 l -1.5301,-0.158997 c -1.431,0.42694 -2.6443,0.284938 -4.2929,1.280817 -0.1372,0.357338 -0.076,0.836297 -0.1242,1.063987 -0.1295,0.616998 -0.1542,0.673029 -0.2285,1.209916 -0.1257,0.05539 0.1093,0.323916 -0.2131,0.542837 -0.1724,0.117034 -0.5015,0.03862 -0.6646,0.215107 l -0.2361,0.328131 -0.3011,0.542774 c 0.2047,1.535798 0.5761,0.963274 0.8644,1.442926 0.8127,0.605081 1.3344,1.156724 1.7185,1.723798 0.5019,0.09537 0.9781,0.220773 1.506,0.285779 l 0.4105,-0.01363 1.1911,-0.04897 1.1325,0.16561 0.8601,-0.182258 c 0.3622,-0.353592 0.3744,-0.257625 0.8524,-0.550944 0.2627,-0.258379 0.2282,-0.9729 0.7001,-1.483943 l 1.0864,-0.698317 c 0.082,-0.07182 0.6453,-0.990079 0.8728,-1.515554 0.2681,-0.619205 0.2147,-0.892107 0.4623,-1.492666 -0.4601,-0.279371 -0.956,-0.147957 -1.3803,-0.840568 z"
         style="font-variation-settings:normal;vector-effect:none;fill:#000000;fill-opacity:1;stroke:none;stroke-width:0;stroke-linecap:butt;stroke-linejoin:miter;stroke-miterlimit:10;stroke-dasharray:none;stroke-dashoffset:0;stroke-opacity:1;-inkscape-stroke:none;stop-color:#000000" /><circle
         style="fill:#393d3f;fill-opacity:1;stroke:#000000;stroke-width:0.183748;stroke-linejoin:bevel;stroke-dasharray:none;stroke-opacity:1"
         id="path3-3-5-5-8-9-4-7"
         cx="1012.5612"
         cy="24.078634"
         r="13.889629" /><path
         id="path208-4-9-9-2-3-85"
         d="m 1004.4228,27.054998 2.1615,2.264616 z m 12.4673,-8.489093 c -0.995,-1.535269 -0.8422,-1.51439 -2.0767,-2.341272 l -2.5198,-0.261834 c -2.3565,0.703059 -4.3543,0.46922 -7.0693,2.109171 -0.2259,0.588447 -0.1257,1.377178 -0.2044,1.752119 -0.2133,1.016037 -0.2541,1.108305 -0.3764,1.992418 -0.207,0.09122 0.1801,0.533413 -0.3509,0.893916 -0.2838,0.19272 -0.8258,0.0636 -1.0944,0.354229 l -0.3888,0.54034 -0.4958,0.893816 c 0.3371,2.529056 0.9487,1.586256 1.4233,2.376127 1.3384,0.996413 2.1974,1.904828 2.83,2.838646 0.8266,0.157059 1.6107,0.363556 2.48,0.470609 l 0.6761,-0.02244 1.9614,-0.08065 1.8648,0.272722 1.4164,-0.300132 c 0.5966,-0.582274 0.6166,-0.424244 1.4038,-0.907262 0.4325,-0.42549 0.3757,-1.602118 1.1529,-2.44367 l 1.789,-1.149959 c 0.1356,-0.118277 1.0626,-1.630399 1.4372,-2.495722 0.4415,-1.01967 0.3536,-1.46907 0.7613,-2.45804 -0.7577,-0.460052 -1.5743,-0.243644 -2.2729,-1.384197 z m -10.2216,9.882325 2.1614,2.264616 z m 12.4673,-8.489093 c -0.995,-1.535271 -0.8422,-1.514393 -2.0768,-2.341277 l -2.5198,-0.261829 c -2.3564,0.703059 -4.3543,0.469218 -7.0693,2.109171 -0.2258,0.588447 -0.1256,1.377173 -0.2043,1.752116 -0.2134,1.01604 -0.2541,1.108305 -0.3765,1.992424 -0.207,0.09121 0.1801,0.533405 -0.3508,0.893916 -0.2839,0.192717 -0.8258,0.06359 -1.0944,0.354224 l -0.3888,0.540343 -0.4959,0.89381 c 0.3371,2.529057 0.9488,1.586261 1.4234,2.376133 1.3384,0.996413 2.1974,1.904825 2.83,2.838643 0.8265,0.157059 1.6106,0.363558 2.48,0.470611 l 0.6761,-0.02244 1.9613,-0.08065 1.8649,0.272724 1.4164,-0.300138 c 0.5965,-0.582271 0.6165,-0.424243 1.4037,-0.907261 0.4326,-0.42549 0.3757,-1.602113 1.153,-2.443668 l 1.7889,-1.149956 c 0.1356,-0.118277 1.0626,-1.630402 1.4373,-2.495722 0.4414,-1.01967 0.3535,-1.469072 0.7612,-2.45804 -0.7577,-0.460052 -1.5742,-0.243644 -2.2729,-1.384199 z"
         style="fill:#ffffff;fill-opacity:1;stroke:#000000;stroke-width:0;stroke-linecap:butt;stroke-linejoin:miter;stroke-miterlimit:10;stroke-dasharray:none;stroke-opacity:1" /><path
         id="path208-4-9-9-2-3-8-7"
         d="m 1007.805,25.798203 1.3125,1.375206 z m 7.5708,-5.155081 c -0.6042,-0.932307 -0.5114,-0.919628 -1.2611,-1.421762 l -1.5302,-0.158996 c -1.4309,0.426934 -2.6441,0.284932 -4.2928,1.280813 -0.1372,0.357336 -0.076,0.836301 -0.1242,1.063988 -0.1295,0.617 -0.1542,0.673026 -0.2286,1.209915 -0.1256,0.05539 0.1094,0.323919 -0.213,0.542838 -0.1723,0.117033 -0.5015,0.03862 -0.6646,0.215109 l -0.2361,0.328128 -0.3011,0.542777 c 0.2047,1.535793 0.5761,0.963266 0.8644,1.442927 0.8127,0.60508 1.3343,1.156723 1.7185,1.723792 0.5019,0.09537 0.9781,0.220771 1.506,0.285784 l 0.4106,-0.01363 1.191,-0.04897 1.1325,0.165613 0.8601,-0.182261 c 0.3623,-0.353591 0.3744,-0.257624 0.8524,-0.550942 0.2627,-0.258386 0.2281,-0.972902 0.7002,-1.483942 l 1.0863,-0.698322 c 0.082,-0.07182 0.6453,-0.990076 0.8728,-1.515549 0.2681,-0.619207 0.2147,-0.892109 0.4623,-1.492669 -0.4602,-0.279376 -0.956,-0.147957 -1.3803,-0.84057 z m -6.2071,6.001131 1.3125,1.375209 z m 7.5708,-5.155081 c -0.6042,-0.932307 -0.5114,-0.919628 -1.2611,-1.421762 l -1.5301,-0.158996 c -1.431,0.42694 -2.6443,0.284938 -4.2929,1.280816 -0.1372,0.357338 -0.076,0.836298 -0.1242,1.063988 -0.1295,0.616997 -0.1542,0.673028 -0.2285,1.209915 -0.1257,0.05539 0.1093,0.323916 -0.2131,0.542838 -0.1724,0.117033 -0.5015,0.03862 -0.6646,0.215106 l -0.2361,0.328131 -0.3011,0.542774 c 0.2047,1.535798 0.5761,0.963274 0.8644,1.442927 0.8127,0.605081 1.3344,1.156724 1.7185,1.723797 0.5019,0.09537 0.9781,0.220774 1.506,0.285779 l 0.4105,-0.01363 1.1911,-0.04897 1.1325,0.165611 0.8601,-0.182258 c 0.3622,-0.353592 0.3744,-0.257625 0.8524,-0.550945 0.2627,-0.258379 0.2282,-0.972899 0.7001,-1.483942 l 1.0864,-0.698317 c 0.082,-0.07182 0.6453,-0.990079 0.8728,-1.515555 0.2681,-0.619204 0.2147,-0.892106 0.4623,-1.492665 -0.4601,-0.279371 -0.956,-0.147958 -1.3803,-0.840568 z"
         style="font-variation-settings:normal;vector-effect:none;fill:#393d3f;fill-opacity:1;stroke:#000000;stroke-width:0;stroke-linecap:butt;stroke-linejoin:miter;stroke-miterlimit:10;stroke-dasharray:none;stroke-dashoffset:0;stroke-opacity:1;-inkscape-stroke:none;stop-color:#000000" /></g></g></svg>
