<?xml version="1.0" encoding="UTF-8" standalone="no"?>
<!-- Created with Inkscape (http://www.inkscape.org/) -->

<svg
   width="169.73055mm"
   height="294.73056mm"
   viewBox="0 0 169.73055 294.73056"
   version="1.1"
   id="svg1"
   xml:space="preserve"
   xmlns="http://www.w3.org/2000/svg"
   xmlns:svg="http://www.w3.org/2000/svg"><defs
     id="defs1" /><g
     id="layer7"
     transform="matrix(0.26458333,0,0,0.26458333,1011.3793,-175.13614)"><g
       id="g3"><rect
         style="fill:#393d3f;fill-opacity:1;stroke:none;stroke-width:1.00157;stroke-linejoin:bevel;stroke-dasharray:none;stroke-opacity:1"
         id="rect1551-9-7-9-1-6"
         width="641.50128"
         height="1113.9423"
         x="-3822.5361"
         y="661.93188"
         ry="41.931297" /><g
         id="g58"
         transform="matrix(0.69770431,0,0,0.69770431,-1057.2594,377.94625)"><circle
           style="fill:#ffffff;fill-opacity:1;stroke:none;stroke-width:1.42488;stroke-linejoin:bevel;stroke-dasharray:none"
           id="path3-3-5"
           cx="-3497.4346"
           cy="1482.9823"
           r="215.52196" /><path
           id="path208-4"
           d="m -3377.3776,1545.2894 -0.4304,-42.9897 37.2281,-46.5159 z m -60.1074,51.43 3.8732,-35.7063 51.5518,-53.44 0.4818,47.9289 -1.1498,2.8069 z m -181.8371,-46.7027 59.5218,24.0468 23.7706,20.6882 -46.1094,-5.7769 z m -28.4338,-42.8547 42.6306,-9.3584 -23.5926,41.1398 z m 37.4895,-44.2743 0.2146,-1.381 35.9147,-20.4125 -28.1253,51.6737 -41.971,9.2171 z m 8.9814,-57.9041 25.8125,31.9228 -33.7372,19.1728 z m 256.8194,31.3125 -41.4932,-9.2042 6.5835,-12.0626 z m -36.3547,62.8884 -36.9136,-9.6603 29.6748,-58.4885 52.4638,11.6386 z m -38.4101,-5.6009 35.4681,9.2814 -1.3809,1.7213 -47.1325,48.8475 z m -22.2089,103.794 -46.4088,-21.7256 49.798,-12.9625 z m -91.4906,-73.5349 36.9437,48.2418 -59.2959,-1.9231 z m 95.2525,34.3057 -52.9968,13.7923 -38.9863,-50.9049 105.9595,-27.1503 -13.9701,64.1794 z m -37.5624,-162.2342 -94.947,40.6838 -29.0722,-35.9563 113.0165,-33.7148 z m 3.2309,-3.6097 -9.6088,-25.3134 33.1045,3.5584 z m 81.7916,33.5991 -79.5692,-29.7967 26.7714,-24.7802 60.0108,41.3646 z m -206.4803,65.6439 27.6199,-50.7488 96.2467,-41.2361 80.5325,30.1563 -0.1798,0.334 0.083,0.019 -29.5978,58.3408 -0.4882,-0.1284 -0.1989,0.8928 -109.8252,28.1395 -1.261,-1.6444 -0.6679,1.3875 -63.2789,-23.5342 1.1536,-2.0104 z m -29.2204,51.1598 26.0346,-45.3983 63.5713,23.6434 -23.4085,48.5025 z m 97.5427,53.0033 -24.4518,-21.2836 60.2131,2.0703 49.4233,24.1118 -82.7079,-4.5882 z m 151.171,-188.3183 c -17.1167,-26.4111 -42.1322,-29.465 -63.3701,-43.6898 l -43.3479,-4.5043 c -40.5375,12.0947 -74.9071,8.0719 -121.6122,36.284 -3.8858,10.1229 -2.1621,23.6914 -3.5164,30.1415 -3.6696,17.4789 -4.3704,19.0662 -6.4759,34.2756 -3.5607,1.5691 -8.1485,1.3534 -17.2821,7.5551 -4.8826,3.3154 -2.9594,8.917 -7.5798,13.9166 l -6.6885,9.2955 -8.531,15.3762 c 5.7995,43.5072 16.3213,27.2883 24.4866,40.8764 23.0236,17.1413 37.8018,32.7687 48.6843,48.8331 14.2184,2.7018 27.7083,6.2542 42.663,8.0959 l 11.6304,-0.3861 33.7418,-1.3873 32.0808,4.6917 24.366,-5.1633 c 10.263,-10.0168 10.6066,-7.2982 24.1484,-15.6075 7.4417,-7.3197 24.1054,-8.9701 37.4762,-23.4473 l 13.1338,-38.3737 c 2.3322,-2.0347 18.2795,-28.0477 24.7247,-42.9337 7.5946,-17.5414 6.0819,-25.2724 13.0959,-42.2856 -13.0356,-7.9143 -27.0816,-4.1914 -39.101,-23.8123 z"
           style="fill:#393d3f;fill-opacity:1;stroke:none;stroke-width:1.42488;stroke-linecap:butt;stroke-linejoin:miter;stroke-miterlimit:10;stroke-dasharray:none;stroke-opacity:1" /></g></g></g></svg>
