<?xml version="1.0" encoding="UTF-8" standalone="no"?>
<!-- Created with Inkscape (http://www.inkscape.org/) -->

<svg
   width="169.73055mm"
   height="294.73056mm"
   viewBox="0 0 169.73055 294.73056"
   version="1.1"
   id="svg1"
   xml:space="preserve"
   xmlns="http://www.w3.org/2000/svg"
   xmlns:svg="http://www.w3.org/2000/svg"><defs
     id="defs1" /><g
     id="layer7"
     transform="matrix(0.26458333,0,0,0.26458333,1377.2831,-175.18598)"><g
       id="g13"><rect
         style="fill:#f7717d;fill-opacity:1;stroke:none;stroke-width:1.00157;stroke-linejoin:bevel;stroke-dasharray:none;stroke-opacity:1"
         id="rect1551-9-7-9"
         width="641.50128"
         height="1113.9423"
         x="-5205.4795"
         y="662.12024"
         ry="41.931297" /><g
         id="g61"
         transform="matrix(0.72350992,0,0,0.72350992,-1366.2416,350.21327)"><circle
           style="fill:#ffffff;fill-opacity:1;stroke:none;stroke-width:2.78098;stroke-linejoin:bevel;stroke-dasharray:none"
           id="path3-3"
           cx="-4871.4751"
           cy="1478.3588"
           r="210.21553" /><path
           id="path149-62"
           style="fill:#f7717d;fill-opacity:1;stroke:none;stroke-width:4.86649;stroke-linecap:butt;stroke-linejoin:miter;stroke-miterlimit:10;stroke-dasharray:none;stroke-opacity:1"
           d="m -4773.7247,1478.1289 v -37.2952 l -14.0192,9.005 -4.8599,3.7507 v 24.4537 0.086 24.4594 l 4.8599,3.745 14.0192,9.0051 z m -25.62,81.2397 20.4971,37.158 c 13.6836,-16.4899 30.3527,-48.2534 40.3026,-45.6428 l -34.2934,-22.0236 z m -3.5049,-7.7014 24.4994,-26.0945 -21.9894,-14.128 -15.2771,18.4789 8.9708,16.2719 z m 60.6969,-131.1134 -25.6373,16.472 v 82.126 l 25.6373,16.4721 9.4223,5.7975 c -3.124,-19.422 -4.5709,-39.7436 0,-63.2925 v -0.086 c 5.3244,-16.653 2.3366,-40.2417 0,-63.2869 z m -128.6549,133.2688 h 55.9913 l -10.1143,-18.3359 h -45.877 v 0 h -45.8771 l -10.1143,18.3359 z m 0,6.4781 v 0 h -60.2566 l -20.8231,37.7524 c 27.0274,0 58.1012,5.4743 81.0797,0 v 0 c 13.6038,-1.4468 33.605,-1.2061 41.9381,-1.3561 20.8278,-0.3752 19.9179,1.3365 39.1415,1.3561 l -20.823,-37.7524 z m 97.9692,-132.9831 34.2934,-22.0244 c -0.6863,-13.2397 -24.9379,-30.1294 -40.3026,-45.6426 l -20.4971,37.1585 z m -5.5118,3.2875 -24.4994,-26.0968 -3.7963,5.4727 -8.9708,16.2731 15.2771,18.4789 z m -92.4574,-28.254 h -55.9914 l 10.1143,18.34 h 45.8771 v 0 h 45.877 l 10.1143,-18.34 z m 0,26.4302 v 0 h -47.9983 l -19.9598,25.3456 v 23.9162 0.086 23.9163 l 19.9598,25.3514 h 47.9983 v 0 h 48.0041 l 19.9539,-25.3514 v -23.9163 -0.086 -23.9162 l -19.9539,-25.3456 z m -97.0829,49.2618 v 37.2951 l 14.0193,-9.0049 4.8597,-3.745 v -24.4594 -0.086 -24.4537 l -4.8597,-3.7507 -14.0193,-9.0051 z m -0.8862,50.8171 -34.2878,22.0236 c 8.3459,14.6031 14.579,28.9522 40.2968,45.6428 l 20.4972,-37.158 z m 33.8075,17.3353 8.9764,-16.2719 -15.2771,-18.4789 -21.9895,14.128 24.4937,26.0945 z m -38.8561,-27.0437 v -82.126 l -25.6372,-16.472 -9.4167,-5.7975 c -5.6237,25.5472 -3.6062,45.0458 0,63.2868 v 0.086 c 1.7768,21.4572 7.4583,43.7046 0,63.2926 l 9.4167,-5.7975 z m 31.5548,-122.3427 -20.4972,-37.1585 c -24.8312,19.5975 -29.1798,31.3188 -40.2968,45.6426 l 34.2878,22.0244 z m 3.5048,7.6992 -24.4937,26.0968 21.9895,14.1279 15.2771,-18.4789 -8.9764,-16.2731 z m 67.9581,-8.6288 v 0 h 60.2566 l 20.823,-37.755 c -21.1738,-1.8993 -34.6707,-6.2896 -81.0796,0 v 0 c -21.9336,-2.7997 -45.9215,-4.4701 -81.0797,0 l 20.8231,37.755 z m -90.822,-45.8035 47.0495,-0.5019 74.7555,-1.6818 c 17.9072,-0.4029 33.5794,-9.777 55.1674,1.1471 10.8083,5.4692 23.5283,22.6383 37.3928,34.1602 8.3821,6.9658 20.1369,12.2202 20.6796,17.6146 7.9754,79.2709 1.2048,97.1129 1.8072,145.6693 0.2089,16.8398 -15.2819,15.6035 -25.5383,26.6045 -9.4152,10.0988 -16.5843,35.0669 -32.0396,34.6879 l -179.6662,-4.4053 c -10.3623,-0.254 -20.7646,-16.0476 -32.9234,-27.7041 -8.7153,-8.355 -21.1728,-9.0344 -22.0216,-26.0296 -1.6572,-33.18 3.6101,-59.8486 1.6226,-74.2173 l -5.6673,-40.9686 c -2.4964,-18.0471 6.6088,-25.4815 18.9819,-43.4357 9.5635,-13.8771 26.3189,-40.7892 40.3999,-40.9393 z" /></g></g></g></svg>
