<?xml version="1.0" encoding="UTF-8" standalone="no"?>
<!-- Created with Inkscape (http://www.inkscape.org/) -->

<svg
   width="169.73055mm"
   height="294.73056mm"
   viewBox="0 0 169.73055 294.73056"
   version="1.1"
   id="svg1"
   xml:space="preserve"
   xmlns="http://www.w3.org/2000/svg"
   xmlns:svg="http://www.w3.org/2000/svg"><defs
     id="defs1" /><g
     id="layer7"
     transform="matrix(0.26458333,0,0,0.26458333,1194.3312,-175.56265)"><g
       id="g12"><rect
         style="fill:#05b2dc;fill-opacity:1;stroke:none;stroke-width:1.00157;stroke-linejoin:bevel;stroke-dasharray:none;stroke-opacity:1"
         id="rect1551-9-7-9-1"
         width="641.50128"
         height="1113.9423"
         x="-4514.0078"
         y="663.54388"
         ry="41.931297" /><g
         id="g57"
         transform="matrix(0.70797911,0,0,0.70797911,-1209.8975,358.05672)"><circle
           style="fill:#ffffff;fill-opacity:1;stroke:none;stroke-width:2.85118;stroke-linejoin:bevel;stroke-dasharray:none"
           id="path3-3-6"
           cx="-4188.4604"
           cy="1486.4255"
           r="215.52196" /><path
           id="path102"
           style="fill:#05b2dc;fill-opacity:1;stroke:none;stroke-width:0;stroke-linecap:butt;stroke-linejoin:miter;stroke-miterlimit:10;stroke-dasharray:none;stroke-opacity:1"
           d="m -4102.3118,1389.7198 10.9317,22.6265 2.5422,15.0004 -32.54,7.6262 z m -32.2869,-41.6892 c 0,0 12.2026,7.1162 13.2208,8.6403 8.101,4.6298 17.3326,20.2261 14.1112,18.8164 l -47.1602,3.5581 z m -50.8441,-15.7623 c 7.2032,4.759 14.4062,2.4875 21.6094,0 10.1434,0.4486 12.5,3.3875 13.9818,6.6062 l 7.6279,3.5581 -21.6097,33.0547 z m 28.4386,79.8259 -23.8635,-15.7623 17.0343,-8.6403 z m 7.1526,4.5782 c 0,0 -5.594,-27.4567 -7.1175,-30.5107 -1.5247,-3.0482 49.7024,-1.5241 49.7024,-1.5241 l -24.027,50.3353 z m 63.556,18.3005 c 3.1624,9.6762 9.4616,22.5955 3.0512,22.3746 4.9043,10.9788 1.9581,14.9614 0,19.8247 l -38.1335,-34.5672 z m -50.8453,35.083 -9.6591,-39.661 15.5063,13.7342 z m 5.8472,20.8505 v -9.6662 l 5.3377,-31.0089 42.7116,34.315 -42.7116,35.845 z m -18.5579,49.3154 9.2774,-39.6551 9.2805,22.8786 z m 61.0137,-3.0482 -28.4737,-12.2042 34.0672,-29.4908 v 18.3064 z m 0,6.1022 -6.6109,18.3023 -7.1151,12.7114 -18.814,-42.708 z m -16.78,39.6558 -51.3512,-4.5757 6.1016,-27.4539 19.5738,-19.3205 z m 0,4.5774 c 1.0002,5.4443 2.0476,10.8929 -4.4639,15.6618 -8.5353,4.6049 -19.604,8.1861 -25.0251,16.8396 l -21.8622,-34.5747 z m -36.6058,38.2208 -12.712,6.4796 c -8.9106,7.2737 -17.5691,11.5004 -28.4743,4.3255 l -2.0328,-0.3822 19.5761,-42.5428 z m -47.2883,-51.4403 v 0 l 20.847,11.1462 -20.847,42.2385 v 0 0 0 l -20.8447,-42.2385 z m 8.6443,-4.8319 18.8141,-11.4393 -3.8131,22.8798 z m 38.644,-92.7896 v 11.1844 l -17.2877,58.9816 -26.9467,20.8439 h -3.0517 v 0 h -3.0487 l -26.9468,-20.8439 -17.2894,-58.9816 v -11.1844 l 13.2202,-51.3553 28.9825,-23.8928 h 5.0822 v 0 h 5.0823 l 28.9819,23.8928 z m -147.9604,-49.3213 c -2.2617,-9.2482 0.1533,-16.0251 2.3253,-22.9307 3.7168,-18.6137 7.4336,-14.7498 11.1504,-14.6962 l 19.0674,45.2531 z m 18.4313,-51.1033 c 0,0 13.0936,-17.2864 14.1118,-18.8163 1.0153,-1.524 13.2177,-8.6344 13.2177,-8.6344 l 19.8311,31.0088 z m 34.9557,-33.8108 7.6269,-3.5581 c 1.5335,-2.7927 4.1921,-5.3729 13.9828,-6.6062 9.4738,-2.0852 17.4456,-2.7912 21.6089,0 l -21.6089,43.219 z m 47.2873,47.2872 v 0 l -23.6401,-8.1304 23.6401,-42.7091 v 0 0 0 l 23.6431,42.7091 z m -8.6437,6.6121 -23.8641,15.7623 6.8302,-24.4026 z m -73.5993,-11.6943 c 0,0 51.2275,-1.5241 49.7023,1.5241 -1.5264,3.054 -7.1197,30.5107 -7.1197,30.5107 l -18.558,18.3005 z m -24.0223,92.5346 c -8.6149,-9.6344 -1.6894,-26.4039 3.0494,-42.1993 l 35.0847,7.6321 z m 63.5567,-46.7773 -9.6632,39.661 -5.8466,-25.9268 z m -15.5098,50.8453 v 9.6662 l -5.3371,29.4849 -42.7098,-35.845 42.7098,-34.315 z m 18.558,58.9816 -18.558,-16.7765 9.2804,-22.8786 z m -61.0139,-3.0482 c -6.8684,-2.6874 -7.2409,-12.0057 -5.591,-23.3886 v -18.3064 l 34.0647,29.4908 z m 13.729,37.1159 -7.1174,-12.7114 -6.6116,-18.3023 32.5431,-11.6943 z m 48.3031,-23.3875 6.1015,27.4539 -51.353,4.5757 25.6753,-51.3501 z m -15.7625,69.1084 c -9.7062,0.4384 -15.8534,-7.8761 -20.8469,-19.0275 -2.1662,-4.4906 -0.074,-8.9766 -8.6421,-13.4739 l 51.353,-2.0733 z m 50.336,16.1423 -2.0335,0.3822 -14.7447,-0.3822 -13.729,-3.9433 -12.7114,-6.4796 23.6448,-32.1199 z m -23.3868,-78.1344 18.8118,11.4393 -14.9988,11.4405 z m -8.261,79.7109 c 26.0519,9.1884 31.9598,11.0895 58.641,7.6189 9.4853,-1.2339 22.1216,-8.5527 39.0363,-21.86 10.2932,-8.098 32.209,-20.1438 35.8641,-32.1272 l 11.4016,-37.3805 c 5.9401,-19.4749 12.1347,-76.8165 9.793,-91.8867 -3.7563,-24.1751 -11.61,-56.3259 -27.0311,-85.5777 -3.1186,-5.9158 -28.2768,-39.1046 -37.2559,-40.771 -7.0922,-1.3161 -22.0165,-9.0545 -27.5431,-9.6729 l -45.4195,-5.0825 c -5.0881,-0.5694 -31.2027,7.9364 -56.7993,30.4978 -15.2094,13.4059 -33.1068,27.079 -35.008,42.6939 -6.3356,52.0351 -11.168,130.2592 -3.3243,147.0709 l 17.7032,37.9439 c 2.7055,5.7987 13.2372,32.6129 28.3899,41.5656 6.8184,4.0287 21.5891,14.4447 31.5521,16.9675 z" /></g></g></g></svg>
