<?xml version="1.0" encoding="UTF-8" standalone="no"?>
<!-- Created with Inkscape (http://www.inkscape.org/) -->

<svg
   width="32.216049mm"
   height="57.8694mm"
   viewBox="0 0 32.216051 57.8694"
   version="1.1"
   id="svg1"
   xml:space="preserve"
   xmlns="http://www.w3.org/2000/svg"
   xmlns:svg="http://www.w3.org/2000/svg"><defs
     id="defs1" /><g
     id="layer2"
     transform="translate(-2159.9574,-314.74845)"><g
       id="g122"
       transform="translate(-38.348356,36.785895)"><g
         id="g121"
         transform="matrix(0.26458333,0,0,0.26458333,1946.3894,-36.785905)"><circle
           style="fill:#8981c5;fill-opacity:1;stroke:none;stroke-width:0.108656;stroke-linejoin:bevel;stroke-dasharray:none"
           id="path3-3-54-0-90-6-7-8"
           cx="978.92053"
           cy="1298.96"
           r="16.411173" /><circle
           style="fill:#8981c5;fill-opacity:1;stroke:none;stroke-width:0.108656;stroke-linejoin:bevel;stroke-dasharray:none"
           id="path3-3-54-0-90-7-1-3"
           cx="1029.0704"
           cy="1298.96"
           r="16.411173" /><path
           id="rect113-5-6"
           style="fill:#05b2dc;fill-opacity:1;stroke-width:16.3465;stroke-linecap:square;stroke-miterlimit:10"
           d="m 980.25515,1189.6005 h 65.50085 c 15.5841,0 28.1302,12.5462 28.1302,28.1304 v 162.4582 c 0,15.5843 -12.5461,28.1304 -28.1302,28.1304 h -65.50085 c -15.5843,0 -28.1304,-12.5461 -28.1304,-28.1304 v -162.4582 c 0,-15.5842 12.5461,-28.1304 28.1304,-28.1304 z" /></g><g
         id="g119"
         transform="translate(1284.0761,335.69574)"><path
           id="path2-4-4-7"
           style="fill:#ffffff;stroke:none;stroke-width:0.229545;stroke-linejoin:bevel"
           d="m 938.93031,-28.798491 a 8.2312702,7.8512169 0 0 1 -8.23129,7.851217 8.2312702,7.8512169 0 0 1 -8.23127,-7.851217 8.2312702,7.8512169 0 0 1 8.23127,-7.851216 8.2312702,7.8512169 0 0 1 8.23129,7.851216 z" /><path
           id="path2-5-4-1-6"
           style="fill:#05b2dc;fill-opacity:1;stroke:none;stroke-width:0.146631;stroke-linejoin:bevel"
           d="m 935.95711,-28.798491 a 5.2581132,5.0153363 0 0 1 -5.25812,5.015336 5.2581132,5.0153363 0 0 1 -5.25809,-5.015336 5.2581132,5.0153363 0 0 1 5.25809,-5.015338 5.2581132,5.0153363 0 0 1 5.25812,5.015338 z" /></g></g></g></svg>
