<?xml version="1.0" encoding="UTF-8" standalone="no"?>
<!-- Created with Inkscape (http://www.inkscape.org/) -->

<svg
   width="32.216038mm"
   height="57.8694mm"
   viewBox="0 0 32.216039 57.8694"
   version="1.1"
   id="svg1"
   xml:space="preserve"
   xmlns="http://www.w3.org/2000/svg"
   xmlns:svg="http://www.w3.org/2000/svg"><defs
     id="defs1" /><g
     id="layer2"
     transform="translate(-2086.0979,-314.74846)"><g
       id="g128"><path
         id="rect113"
         style="fill:#8981c5;fill-opacity:1;stroke-width:16.3465;stroke-linecap:square;stroke-miterlimit:10"
         d="m 722.84645,1189.6005 h 65.5008 c 15.5841,0 28.1302,12.5462 28.1302,28.1304 v 162.4582 c 0,15.5843 -12.5461,28.1304 -28.1302,28.1304 h -65.5008 c -15.5843,0 -28.1304,-12.5461 -28.1304,-28.1304 v -162.4582 c 0,-15.5842 12.5461,-28.1304 28.1304,-28.1304 z"
         transform="matrix(0.26458333,0,0,0.26458333,1902.2876,0)" /><path
         id="path26-2-9-7-6-9-7"
         style="fill:#ffffff;stroke:#000000;stroke-width:0;stroke-linecap:butt;stroke-linejoin:miter;stroke-miterlimit:10;stroke-dasharray:none;stroke-opacity:1"
         d="m 2097.4072,337.16615 9.496,-0.0239 3.975,3.98944 -8.6578,9.74547 c 0.051,-0.0569 -8.6868,-9.62844 -8.6868,-9.62844 z" /><path
         id="path26-2-9-7-6-0-7-1"
         style="fill:#8981c5;fill-opacity:1;stroke:#000000;stroke-width:0;stroke-linecap:butt;stroke-linejoin:miter;stroke-miterlimit:10;stroke-dasharray:none;stroke-opacity:1"
         d="m 2099.4951,339.47031 5.3642,-0.0135 2.2454,2.25356 -4.8907,5.50504 c 0.029,-0.0322 -4.907,-5.43893 -4.907,-5.43893 z" /></g></g></svg>
